<?xml version="1.0" encoding="UTF-8"?>
<svg id="Layer_1" xmlns="http://www.w3.org/2000/svg" version="1.1" viewBox="0 0 150 150">
  <!-- Generator: Adobe Illustrator 30.1.0, SVG Export Plug-In . SVG Version: 2.1.1 Build 136)  -->
  <defs>
    <style>
      .st0 {
        fill: #363636;
      }
    </style>
  </defs>
  <polygon class="st0" points="79.4 137 70.6 137 70.6 114.9 66.1 114.9 66.1 97.2 57.3 97.2 57.3 101.6 52.8 101.6 52.8 106 48.4 106 48.4 110.4 44 110.4 44 114.9 39.6 114.9 39.5 119.3 30.7 119.3 30.7 110.4 35.1 110.4 35.1 106 39.6 106 39.6 101.6 44 101.6 44 97.2 48.4 97.2 48.4 92.7 52.8 92.7 52.8 83.9 35.1 83.9 35.1 79.4 13 79.4 13 70.6 35.1 70.6 35.1 66.1 52.8 66.1 52.8 57.3 48.4 57.3 48.4 52.8 44 52.8 44 48.4 39.6 48.4 39.6 44 35.1 44 35.1 39.5 30.7 39.5 30.7 30.7 39.5 30.7 39.6 35.1 44 35.1 44 39.5 48.4 39.5 48.4 44 52.8 44 52.8 48.4 57.3 48.4 57.3 52.8 66.1 52.8 66.1 35.1 70.6 35.1 70.6 13 79.4 13 79.4 35.1 83.9 35.1 83.9 52.8 92.7 52.8 92.7 48.4 97.2 48.4 97.2 44 101.6 44 101.6 39.5 106 39.5 106 35.1 110.4 35.1 110.5 30.7 119.3 30.7 119.3 39.5 114.9 39.5 114.9 44 110.4 44 110.4 48.4 106 48.4 106 52.8 101.6 52.8 101.6 57.3 97.2 57.3 97.2 66.1 114.9 66.1 114.9 70.6 137 70.6 137 79.4 114.9 79.4 114.9 83.9 97.2 83.9 97.2 92.7 101.6 92.7 101.6 97.2 106 97.2 106 101.6 110.4 101.6 110.4 106 114.9 106 114.9 110.4 119.3 110.4 119.3 119.3 110.5 119.3 110.4 114.9 106 114.9 106 110.4 101.6 110.4 101.6 106 97.2 106 97.2 101.6 92.7 101.6 92.7 97.2 83.9 97.2 83.9 114.9 79.4 114.9 79.4 137"/>
</svg>