<?xml version="1.0" encoding="UTF-8"?>
<svg id="Layer_1" xmlns="http://www.w3.org/2000/svg" version="1.1" viewBox="0 0 150 36">
  <!-- Generator: Adobe Illustrator 30.1.0, SVG Export Plug-In . SVG Version: 2.1.1 Build 136)  -->
  <path d="M24.3,10.8h-1.2v-1.2h-13.3v1.2h-1.2v14.5h1.2v1.2h13.3v-1.2h1.2v-1.2h1.2v-6h-1.2v-1.2h1.2v-4.8h-1.2v-1.2ZM20.7,21.6h-3.6v-2.4h3.6v2.4ZM20.7,15.6h-3.6v-2.4h3.6v2.4Z"/>
  <path d="M43.6,10.8h-1.2v-1.2h-12.1v1.2h-1.3v1.2h-1.1v12.1h1.2v1.2h1.2v1.2h12.1v-1.2h1.2v-1.2h1.2v-12.1h-1.2v-1.2ZM40,21.6h-3.6v-8.4h3.6v8.4Z"/>
  <polygon points="62.9 9.6 48.5 9.6 48.5 10.8 47.2 10.8 47.2 13.2 48.5 13.2 48.5 14.4 52.1 14.4 52.1 25.2 53.3 25.2 53.3 26.4 58.1 26.4 58.1 25.2 59.3 25.2 59.3 14.4 62.9 14.4 62.9 13.2 64.1 13.2 64.1 10.8 62.9 10.8 62.9 9.6"/>
  <polygon points="82.2 9.6 78.6 9.6 78.6 10.8 77.4 10.8 77.4 15.6 75 15.6 75 10.8 73.8 10.8 73.8 9.6 67.8 9.6 67.8 10.8 66.6 10.8 66.6 25.2 67.8 25.2 67.8 26.4 73.8 26.4 73.8 25.2 75 25.2 75 19.2 77.4 19.2 77.4 25.2 78.6 25.2 78.6 26.4 82.2 26.4 82.2 25.2 83.4 25.2 83.4 10.8 82.2 10.8 82.2 9.6"/>
  <polygon points="101.5 9.6 87.1 9.6 87.1 10.8 85.9 10.8 85.9 25.2 87.1 25.2 87.1 26.4 101.5 26.4 101.5 25.2 102.8 25.2 102.8 22.8 101.5 22.8 101.5 21.6 94.3 21.6 94.3 19.2 101.5 19.2 101.5 18 102.8 18 102.8 16.8 101.5 16.8 101.5 15.6 94.3 15.6 94.3 13.2 101.5 13.2 101.5 12 102.8 12 102.8 10.8 101.5 10.8 101.5 9.6"/>
  <path d="M120.9,12h-1.2v-1.2h-1.2v-1.2h-10.9v1.2h-1.3v1.2h-1.1v13.3h1.2v1.2h6v-1.2h1.2v-7.2h3.6v7.2h1.2v1.2h2.4v-1.2h1.2v-12.1h-1.2v-1.2ZM117.2,15.6h-3.6v-2.4h3.6v2.4Z"/>
  <path d="M140.2,13.2v-1.2h-1.2v-1.2h-1.2v-1.2h-12.1v1.2h-1.2v14.5h1.2v1.2h13.3v-1.2h1.2v-1.2h1.2v-10.9h-1.2ZM136.5,20.4h-1.2v1.2h-2.4v-8.4h2.4v1.2h1.2v6Z"/>
</svg>