<?xml version="1.0" encoding="UTF-8"?>
<svg id="Layer_1" xmlns="http://www.w3.org/2000/svg" version="1.1" viewBox="0 0 150 52.1">
  <!-- Generator: Adobe Illustrator 30.1.0, SVG Export Plug-In . SVG Version: 2.1.1 Build 136)  -->
  <path d="M137.8,42.2h-1.1c-.3,0-.6.2-.7,0l-.5-.8v.5h-.9c0,0,.2-.4.2-.4l-.6.2c-.2-.3-.3-.4-.6-.5l.2-.4h-.3v.4c-.2,0-.5.2-.8.3s-.4.3-.5.3-.4,0-.5-.3-.4,0-.5.2h-.2v-.2h.2c0-.2-.2-.4-.3-.3l-.3.3-.3-.3c-.1.4,0,.6.2,1.1h-.6c0,0,.4-.4.4-.4,0,0-.3-.6-.6-.6l-.6-.5c.4-.3.7-.7.5-1.1-.1.3-.2.5-.3.5v-.9c0-.4,0-.7-.5-.8l.5-.4h.8s.2,0,.1,0c.2-.2.4-.3.6-.2s.2.3.2.6c-.2,0-.3-.3-.3-.2l-.2.3s.2.2.3.2.5-.3.6-.3c.3.2.5.2.7.2.5,0,.8-.2.9-.7.1,0,.2,0,.2,0l-.2.3c0,0,0,.4.1.5.1-.6.4-.7.9-.7h.3s.1.2,0,.2h-.2c0,.2,0,.4.2.4s.4,0,.3,0l-.2-.2v-.2h.3v-.3c.5.4,1.1.5,1.5,0v.2h.8c.3,0,.6,0,.9-.2,0,0,0,.2.1.2h1.8c-.1-.4-.2-.6-.1-.7.2-.2.2-.7,0-.8h-1.3c-.2.2-.5,0-.8,0h-1.1v.2c-.1-.2-.2-.3-.3-.3h-3.3l-1.2.2-.3-.3s-.3.2-.4.2h-.8c-.2-.2-.5-.3-.7-.4l-.7-.5c-.1,0-.4-.4-.5-.4-.3-.2-.4-.4-.4-.8l-.3-.2c0-1.3-.6-1-.2-1.7v-.4c0,0,0-.2,0-.3h0c0,0,0,0,.2,0s0-.2,0-.2h-.4l.3-.4h.5c.1,0,.1-.3.1-.3h.3c0,0,.2-.2.2-.2,0,0-.1-.2-.2-.3-.4-.2-.2.4-1.1,0,.4-1,.2-.7.3-1.1s.3,0,.3-.2l.5-.7c.4,0,.6-.6.8-.7.8-.2,1.6-.3,1.6-.6v.4c.2.2.8-.3.8-.3l.4.2s.3-.2.4,0l.2.2.3-.2s.2.2.3.2l.3-.3s1,0,1.1.2h.4c1.4,0,.8-.4,2.8,0l.2-.2c.2-.2,0,0,.1,0h.3s.2.3.3.4c.5-.3.4.2,1.1,0,0,.2,0,.4,0,.2.4,0,.5,0,.1,0h.8c0,0,.2,0,.2,0,.1,0,.1,0,0-.3-.3,0-.1,0,0,0,0,0,0-.3.1-.3l.3.2c-.2,0-.4.2-.4.2l.3.3.2.5h.4c0,0,.2.4.2.4l-.6-.3c0,0,0,.3.1.7v-.4c.2,0,.3.3.3.4l-.3.4h.1v.3h-.5l.6.2-.3.3-.4-.4c-.2.3-.4.3-.7.4,0,0,.2.2.3,0l.4-.2c0,.2,0,.4-.1.7l-.4-.4h0v.3l-.2-.2v.3c-.2,0-.4,0-.4,0l-.6.2h-.4c0,0-.2-.3-.3-.5,0,0-.2.5-.3.4l-.3-.2-.3.3c-.4-.2-.8-.2-1.3,0s-.9,0-1.3,0h-.8c-.2,0-.3,0-.5.2h-2.3l.2.3s-.6.5-.4.8.5,0,1,.4l1-.2c.6.3,1.3,0,2,0h.9c.2,0,.4,0,.6,0h3.9c.3.2.7.4,1.1.5,1.4.6.9,1.1,1.7,1.3,0,0-.2.3-.2.4s.2.2.4.2v.4c0,.5.2.9.2,1.5v1c.1,0,.3,0,.3,0h0c-.5.4,0,.2-.7,1.6s-.4,1.2-.4,1.6v1.5c.1.3,0,.7,0,1.1s.3,1.1-.3,1.5-.6,0-.8,0-.3-.5-.3-.8v-1.6l-.2-1.5-1.3.5c-.7-.2,0,0-1.2,0h-1.1l-.2-.3ZM138.6,39.3l.3-.2s-.1-.2-.2-.2h-.2v.5h0ZM129.3,39.2h.2v-.2c0,0-.2-.2-.2,0,0,0,0,.3,0,.3ZM133.9,39.9v-.7h-.8l-.8.3.6.2c.3,0,.6.2,1,.2ZM134.6,39.1v.3h.3v-.2h-.3ZM132.3,41.3c0,0,.1.2.2.3s.3,0,.3,0v-.2h-.5Z"/>
  <path d="M75,38.1l.2.3c0,0,.4-.3.4-.3.2.5.9,0,1.7.2s1,.2,1.4,0l.2.2h1.9l1,.3h-.3c0,.2,0,.4-.2.4s-.3.2-.4.3l-1.6,1.5-.5.5c-.3.4-.5.7-.4,1.2s0,.7,0,1v1.8c.2.8.3,1.6-.3,2.2l-.5-.8c-.2-.3-.2-.8-.2-1.2,0-2.1-.2-1.3-.5-3.1,0,.4-.4.8-.7.8-.5,0-.4-.5-.5-.9s-1.4,0-2-.3l-.3.3c0,0-.5-.3-.6-.3s-.3.3-.5.5c0,0-1.1-.4-1.4-.4h-1.6c-.5,0-.9,0-1.2.4l-.6-.2c-1.1,0,.2,0-1.8-.3s-.3,0-.4-.2,0-.2,0-.4c0-.4,0-1.8,0-2.3s.3-.7,0-.9l.2-.6c-.2-.7,0-1.8,0-2.4s0-1.7,0-2.2-.2-.2-.2-.3,0-.3,0-.4c-.4-1.4,1-2.2,1.5-2.7l1.4-1.4c1.2-1.2,1-.5,2.5-.7.3,0,.8,0,1.1,0,.5-.2,1.1,0,1.6,0l.4-.2h6.5c.3.2,0,.9,0,1.3,0,1,.2,1,0,1.6s0,.6-.3.7c-.4.2-.9,0-1.2-.2l-.5.3c0,0-.4-.2-.6-.2h-8.3v-.3h-.2c0,0-.2.5-.2.5,0,.3-.2.5,0,.8s.3.6.6.6h6.2v1.4c0,1.4,0,.4,0,2s-.6.3-.9.3h-2.1c-1.1,0-.5,0-.6,0l-1.6-.2c-.3,0-.7.3-.9,0,0,.2,0,.3-.2.3h-.4v.7h-.3c.5.3.5.8.7.8h.4c0,0,1.9,0,1.9,0h2c.6,0,.7.4.9-.2l.3.5Z"/>
  <path d="M61.1,36.9l-.6.2s-.4,0-.4,0-.3.3-.3.3l.7.4s.3-.3.4-.4c.2.2.3.5.2.6l-.2-.3h-.2s0,.2.3.3h-.4c0,0,.5.4.5.4,0,0,0,.3-.2.3l-.5-.3.3.5-.3.3c.3,0,.5,0,.5,0,0,.2,0,.6,0,.5-.2,0-.3,0-.6.2l.4.9c-.2,0-.4,0,0,0,0,.2,0,.3,0,.3l-.2-.2v-.2h0v.2h-.2c0,0,0,0-.2,0l-.2-.3h-.3v.5c0,0-.2,0-.5,0s-.2,0,0,.2c0,0-.5,0-.5-.2s-.2-.6-.4-.7v.7c0,0-.3-.2-.3-.2,0,0-.2,0-.2,0v.2h.8c0,0-1,.3-1,.3,0-.2-.3-.5-.5-.5v.4c-.5.2-1,0-1.2-.2l.2-.3s0-.2-.2-.2-.2.2-.2.2v.3c-.2-.2-.2-.4-.3-.3s-.3,0-.4,0,0,.3.2.4l-.5.2c-1.1,0-2.1,0-3.2,0h-3.4c-.2,0-.5.2-.7,0s0-.4,0-.7c-.4-.5-.3.2-.6-.5s0,0,0,0v.3l.6.2c-.3.2-.6,0-.7,0s0-.4,0-.6v-.2s0,0,0,0l.2.2s.2-.3.2-.5h-.7l-.5.6v-.4c0,0,.2,0,.4-.2l-.4-.3s0,.2,0,.2h-.3l.3-.3c0,0-.4-.2-.4-.5s.2-.2.2,0h.2c.5.3-.5-.7-.6-.7l.7-.3h-.8v-.8c0,0,.5-.3.4-.5s-.2-.3-.5-.4l.7-.4-.3-.4.2-.3s0,0,0,0v.4c.2,0,.5-.3.3-.4-.4-.6-1.2-.4-1.2-.9s.2-.4.4-.6h0v-.3l-.2.3v-.2h0q0-.2,0-.3h.6c0,0-.7-.2-.7-.2l.2-.2s0-.2-.2-.3h.2l.2.3.6-.6-.4-.2v-.3l-.3.3h0c0-.3,0-.2.3,0l-.2-1.1.2.5v-.4c0,0,.6,0,.6,0,.2,0,.4-.5.3-.6s-.3.2-.3,0v-.5c0,0-.1,0-.2-.2,0,0,0-.2.2-.2h.3v-.2c0,0,0,0,.3,0,0-.5.5-.7,1-.8v-.3h.3c0,0-.3.3-.3.3.5,0,.8-.3.8-.8.4.3.3.5.3,1l.3-.4.2-.2s0,0,.2.2c0,0,.2-.4.3-.3l.4.2s.3-.2.3-.3l.4.3c0,0,.4-.3.4-.3.2,0,.5,0,.8,0h2c0,0,1.4,0,1.4,0h2.8c.4,0,1.2,0,1.4.2l.2-.3.2.4h.5c0,0,0,0,.2,0s.5,0,.6.2c.2.2,0,.4,0,.6l.2.7h-.3c0,0,.3.3.3.3,0,0,0,.2,0,.2.6.5,0,1.6-.3,1.6h-5.4c-1.1,0-1.3-.2-1.8.2l-.3-.3s-.4,0-.5,0c-1.4.2-1.1-.2-1.9,0,0,0,.3-.4.3-.6-.5,0-.6.2-.8.6v-.4c-.2,0-.5-.2-.5,0v.3h-.5l-.2-.2s-.3.2-.3.3v.3l.4.2h-.6l.4.4c-.5.2-.6-.3-.7-.7l-.5.6v.2c0,0,0,0,.2-.2v-.2h.2v.7h-.5c0,0,.5.4.5.4h0s0,.4,0,.3h-.3l.5.3h-.3v.4c0,.3,0-.2.7,0s0,.2-.2.2h-.2s0,.2,0,.3l.2.2-.2.2s0,.6.3.8l-.3.8-.5.4.3.3v.3h-.2s-.2,0,0,0l.2.2v.2h.4l.5-.3-.3.4h6.5c0,0,.3.2.5.4,0,0,0-.2,0-.2h.3v-.3l.2.2.2.3c.2.2-.6.5-.2.8l.6-1c.2-.3.3-.6.4-.9,0,0,0,.2.2.2s0,0,0,.2v.6l.5-.4c0,0-.3-.3-.3-.3l.7-.4c.2,0,.7,0,1-.2l-.6-.2c0,0-.4,0-.5,0s-.3.3-.4.4l-.2.2h-.2v-.3l-.3-.7c-.7.3-1.3-.2-2.1.2,0,0-.2-.2-.3-.2s-.4,0-.5,0h-2.2c0,0,.7-1,.7-1,.2-.2.6-.6.9-.8v-.2c0,0,0-.2,0-.2l.2.2c.9-1.4,1.2-.8,1.6-1.5s1-.2,1.4-.3.7-.3,1.2,0,.4,0,.7,0h2.6c0,0,0,.4,0,.5,0,1.5.3,1.3,0,2.4s0,.6,0,.9l-.7.2ZM60.4,28.1v.4s.4-.3.3-.3-.3,0-.3,0h0ZM46.6,30.2h.3c0,0-.3,0-.3,0h0ZM48.4,31v.3c-.2,0,0,0,0,0s0-.2,0-.2c0,0,0,0,0,0h0ZM54.4,35.6c0,0-.2.3,0,.3h.4c.2,0-.3-.4-.2-.3h-.1ZM47.3,36.5c.4-.2.3-.2,0-.2,0,.2,0,.4,0,.2ZM46,38.5l.4.3c0-.2-.2-.4,0-.4l.3-.2-.2-.5c0,.2-.2.4-.3.4h-.3c0,.2,0,.4,0,.8v-.3h.2ZM49,38.6c0,0-.3,0-.2.2l.2.2h0c0-.2,0-.4,0-.3h0ZM58.2,38.6c-.3,0-.5,0-.4.3l.4-.3ZM45.9,40l-.2-.8v.4c-.2,0-.2.3-.2.4s.3,0,.4,0ZM51,39.5h-.3c0,.2-.2.3-.2.4s.3.2.3,0l.2-.5ZM57.4,40.7h0v.2l-.2.3s.3,0,.3,0v-.6h0Z"/>
  <path d="M123.6,34.4c-.6.5.4,1.1-.2,1.2s-.3,0-.4,0l-.9.4.5.5c0,0-.2.2-.2.3l.3.4.3-.3.6.8-.3.9s-.2-.3-.2-.2c0,.7-.6,1.5-1.1,2.2s-.6.5-.9.8l-1.1.6c-.3.5.2,1.6-.7,2s-.9,0-1-.4-.3-.8-.4-1.3h-2.1c-.6,0-1.4,0-1.9,0s-.5,0-.6,0-.2-.2-.3-.4c-.4.4-.9.4-1.5.3s-1,0-1.4,0h-2.7c-.2,0,0-.7,0-.9s0-.2,0-.3v-1.5c0,0,0-.3,0-.5v-10c0,0,.2-.3.2-.4s0-.3-.2-.5,0-.5.3-.5c1.7.5,1-1.3,3.5.6l-.4.4h.4c.2.2.2-.4,0-.6s0-.2,0-.3.2,0,.3,0l.7.2c1.3-.9,1.3.5,1.5-.2s0,0,0,0l.2.3v-.5l.3.5h.5c0,0,.3,0,.5,0l.3-.2s0,.2,0,.3h0c0,.2,0,.3,0,.2v-.3c.3,0,.6.4.7.8l.4-.3-.5-.2c0,0,0-.4,0-.4l.7.8c0-.3,0-.5-.3-.7h1.1s0-.2.2-.4c.2.3.5.3.9.4l.4.6v.3c0,.1.2,0,.2,0l.7.3v.3c0,.2.2.3.4.5l.4.4.7.4c.2.4.6.7,1,.9v.3s.2,0,.3,0l.7.9v1s0,.2,0,.3,0,0,.2.2h0ZM118.3,28.3h-.6c0,.2.4.2.6,0ZM115.7,30.1c0-.3,0-1.3-.4-1l.3.7c-.3,0-.3,0-.3.2v.2h.5,0ZM113.6,29.5l-.3-.2-.2.2h.5ZM113,30.2h.4c0,0,0-.2,0-.3-.3,0-.5.2-.5.3ZM114.4,30.2c-.2,0,0,.4,0,.3s.2,0,.2-.2-.3-.2-.3-.2h.1ZM116,30.8v.3h0v-.2s0,0,0-.1ZM113.7,38.4h2.5c.5,0,1.1,0,1.6,0s1-.3,1.2-.7c.4-.5.7-1.1.7-1.7,0-2.3-1.5-2.4-2.6-4s-.2-.4-.5-.5h-1.2c-.3-.3-1.5,0-1.9,0-1.6.2-1.6-.5-2.1,0h-.6c-.2,0-.2.4-.2.6v6c0,.2.3.3.5.3h2.6ZM109.1,34v.3h.3v-.3c0-.1-.2,0-.2,0h-.1ZM109.9,34.8c0,0,0-.6,0-.6s-.3.3-.3.3c0,0,0,0,.3.2h0ZM109.5,35.1l-.7-.8c0,.5.2.8.7.8ZM109.5,36.4c0-.3-.3-.3-.5,0h.5ZM110.5,36.9v-.7c-.2.2-.2.4-.2.7v.4s.2,0,.2-.2v-.2ZM108.7,37.6l.3.2q0-.2,0-.3l.3-.2-.7-.5-.9.6c.4.2.5.2.7.6l.3-.6v.2ZM122.2,37.6s.2-.2,0-.2,0,0,0,0c0,0,0,0,0,.3-.2,0,0,0,0,0ZM110.1,38.6v-.7h-.6c0,0-.3.4-.3.5l.9.3h0ZM109.6,39.9c0-.3,0-.4,0-.5s0-.3,0-.3h-.3v.3l-.5.3.9.3h0ZM114.8,39.9s0,.2,0,.2.2,0,.2,0v-.2h-.2ZM114.4,40.6v-.4c0,0-.3,0-.5,0l.5.4ZM109.8,40.6s.3,0,.2,0v-.2h-.3l-.2.2h.3ZM113.8,40.6h-.4.4ZM113.1,40.7v-.2c-.3.2-.4.5-.2.9,0,0,.2-.7.2-.7ZM116.3,41.2c0-.2-.3-.4-.4-.5,0,.3,0,.5,0,.6s.5,0,.4,0ZM114.1,41.3l.2-.3c-.3,0-.5-.2-.6-.2s-.3.4-.2.4q.2-.2.4-.2c.2,0,0,0,.2.3ZM114.7,41.4v.2h.2v-.2h-.2Z"/>
  <path d="M29.8,37.6v-.2h-.3s0,0,.1,0h.3v.4h0Z"/>
  <path d="M37.2,38.2c0,0,.3.5.4.4l.4-.3h.5c.2,0,.5,0,.6.2s0-.2.2-.2h.8v1l-1.1.8s0,.4-.2.4h-.5c0,0-.2-.3-.2-.3h-.5l.6.4v.3c0,0-.3-.2-.3-.2v.2c-.2,0-.3,0-.3,0l-.2.6s-.2,0,0-.2l.2-.3-.7-.2-.4.2.2.3v.2c0,0-.3-.2-.3-.2,0,0-.4.4-.5.3s-.2-.2-.4-.4l-.2.8s-.4-.2-.3-.4c0,0-.4,0-.5,0s-.3.3-.3.5v-.4q0,0-.3,0v.7h-1.6c0,.3,0,.7-.4.7-.6-.7-1.4-.6-2.2-.7s-1.3,0-1.8.3v.2h0c0,.2-.2,0-.3,0,0-.2,0,0-.1.2-.4-.8-1.7-.4-1.8-.7s0-.2,0-.2h.3s-.2-.2-.3-.2l-.4.3h-.8v-3.5.3c-.1,0-.2-1-.2-1,0-.3,0-.6.2-.8v.3h.4l.2,1c.3.2.4.3.6.6l.2-.3c.2,0,.4.2.6.2h.5c.1,0,.4-.2.3-.3l-.4-.5c0,0-.4,0-.5,0s.2.2.2.2c0,0-.1.2-.1,0s-.1-.2-.2-.2v-.3c-.1,0,0,0,.2,0v-.7h-.7c-.1-.4-.2-.6-.4-1h.3s.1,0,.2-.2l-.5-.3.4-.3c-.4,0-.9,0-1-.3l-.2-.5.2-.2v-.3c0-.4,0-.8-.1-1.1h.2v-.2c-.1,0-.1-1.5-.1-1.5v-.6c.2-.2.4-.6.6-.9h.2v-.3l.4-.2c0-.3.4-.4.6-.5l.7-.7,1.2-1.3c.5.4.9.2,1.4.2h3.1l.2-.2c0,0,.5,0,.7,0h.8c.2,0,.5,0,.7,0,.2.3.6.6,1,.3l.4.6.3-.5c0,0,.3,0,.4,0v-.2h.2v.3h.4v.4c0,0-.3,0-.4-.2v.6l.3-.4h.3v.4c.2,0,.3,0,.4,0l.4.4v-.3c0-.1,0,0-.3-.2,0,0,.3-.2.4,0l.2.4.2-.2v.2c0,0-.6.5-.6.5h.3c.2.2.2,0,.4,0h0s0,.2-.2.2h-.3c0,0,.2.3.2.4h-.4s0,.2,0,.2.2.2.3.2l.4.9h-.7l.3-.3h-.4v.5c-.8.2-1.3-.3-2.1,0l-.8.2-.4-.4c-.2.2-.3.5-.2.7-.2,0-.4-.2-.6-.3v.4l-.4.2v-.6c0,0,0,.3,0,.3h0c.4-.4-.8-.4-1-.3h-1.7c0,0-.5,0-.5,0,0,0-.4,0-.3,0s.1.3.1.2c.1,0,.4,0,.4.2v.4c-.1,0,0,.3,0,.3l-.4-.3s.1-.2.2-.3c0,0-.6-.2-.7,0-.2.2.2.9.3.8h.2c0,0,.3,0,.3,0,0,0,.3-.2.4-.2l.6.2c0,0,.3-.2.4-.4v-.2h.2c.1,0,0,0,0,.2v.3c0,.3.3-.3.7,0s.2.2.2,0l.2-.2s.2.2.3.2c.2,0,.5,0,.6,0h.4l.4.2s0,0,.2,0c-.2-.2,0,1.5-.2,1.7h.2c-.2,0,0,1.4-.4,1.8s-.7,0-.9,0l-.2.2h-.2c0,.2-.2.2-.2,0l-.7.2-.4-.2-.2.2v-.3c-.2,0-.4,0-.5.2l-.3.5c-.1,0-.3-.2-.4-.3s-.4.2-.6.4c-.2-.3-.6-.6-1-.6v.2c.2,0,0,0-.1.2l-.3.2s.3,0,.3.2c0,.2,0,.7.2.8h.9c.2-.3.4-.5.7-.7.1,0,0,.5,0,.6.6-.2.7.5,1-.2.2,0,.6.2.9.3l.6.2c.2,0,.6-.2.9,0h.6c0,0,.3,0,.3,0,.4.3.7.3,1.1,0h.8-.5ZM36.9,28.2h-.3v.3s.2,0,.2,0l.2-.3h-.1ZM29.8,28.5c-.3,0-.5,0-.5,0,.1,0,.5,0,.5,0ZM38.5,29c-.3,0-.5-.2-.5,0v.3c0,0,.5-.2.5-.2ZM36.5,29.8l-.5-.4c0,.3.3.4.5.4ZM36.5,29.5s0,.2.2.2h.2v-.3h-.4ZM37.8,30.9h.3c.2,0,.3-1.2,0-1.3l-.4.9s0,.2,0,.2h-.3c0-.2,0,.2,0,.2h.5ZM36.5,30.7v-.4s-.2-.2-.4-.3c0,.3,0,.4.4.7ZM28.1,32.5v-.5h-.3c-.4,0-.6,0-1-.4l.2.8h1.2-.1ZM28.8,32.3l.7.5-.2-.5h.3c-.2-.4-.7-.4-1.3-.2l.3.3v-.4c.3,0,.5,0,.4.2s0,0,0,0h-.2ZM26.8,32.9v.3l.2-.2s-.2,0-.2-.1ZM26.8,34.6l.2,1.2q-.2.2-.2.3c0,.1.2.2.2.2,0,0,0-.2.1-.3v-.9c0-.3-.1-.7-.2-1.1-.3.2-.6.4-.8.5s.2.7.3.6v-.2h-.1c0,0,.5-.3.5-.3ZM34,35.5c0,0,0-.3,0-.4s-.2,0-.3.2,0,0,.3.3c0,.2,0,0,0,0h0ZM34.5,36.4c.2,0,0-.5,0-.6-.2,0-.2.6,0,.6ZM28,37.9h.5c.1,0,.2-.3,0-.4v.2h-.6c0,0,.1.2.1.2ZM36.3,38.8s.3,0,.3-.2-.2-.4-.2-.3v.5h0ZM37.8,38.9s0,.3.3.3,0,0,0-.2-.2-.2-.2,0h0ZM33.9,39.3c0,.2.3.4.4.3s0-.4-.2-.4h-.8c.2.5.5.2.7,0h-.1ZM26.2,39.7s-.3-.3-.3-.2v.2c-.2,0-.3.4-.2.5s.3,0,.4,0,.1-.4,0-.5h.1ZM34.9,41.1c0-.5,0-.5-.4-1h1v-.6s-.3,0-.3.2v.3h-1.4v.9l1,.3h.1ZM26.7,39.8c0,0,.1-.2,0-.2h-.3v.2l.2.2v-.2h0ZM25.2,40.2c0-.2,0-.4-.1-.3l-.6.2.7.2h0ZM29.2,40.3v-.2c-.1,0-.5.2-.5.2h.2q0,0,.2,0h0ZM37.7,40.7c0,0,0-.4-.2-.4v.4c0,0,.2,0,.2,0ZM36.4,41h0c0-.2,0,0,.2-.2l-.5-.4v.3c0,0,0,.2,0,.3q0-.3.2,0h0ZM33.7,40.8l-.4-.3s-.2.2-.2.3h.3c0,0,.2.2.2.3s0-.2,0-.2h.1ZM30.7,40.9c-.1-.2-.2-.3-.2-.3l-.2.2h.2c.2,0,.3,0,.2.1ZM29.3,41c0,0-.1-.3,0-.2h-.3v.3h.3ZM32.1,41.5h-.9c-.1,0-.2.4-.1.4s.3,0,.4,0c.2,0,.3-.3.6-.5ZM30.8,41.7l-.2.3h.3c0,0-.1-.3,0-.3ZM26.5,41.9h-.5c.1.3.3.3.5,0Z"/>
  <path d="M101.7,41.8c0-.2-.2-.3-.4-.3s-.3.2-.3.6h-1.3c0,0-.3.2-.4.2s-.3-.2-.4-.2h-.4c0,0,0-.2-.2-.3l-1.1-1.2c-.2-.2-.5-.4-.7-.6l-.5-.4-.8-.8-1.2-1.1c-.2-.2-.3-.9-.9-.7,0,.2,0,0,0,0l.2-.4-1.5-1.2v-.2c0,0,.2,0,0,0h-.3l-.2-.5c0,0-.4-.2-.5-.2v-.3s-.4,0-.4,0v.2h-.2v-.3l-.3.3h-.4c0,0,0,.4,0,.6v.9c0,.3,0,.7,0,1l-.2.3s0,.2.2.3l-.2.6.2.3s-.2,0-.2,0h-.3l.6.9-.8-.3-.2.4v-.4h-.3c0,.2.3.4.4.4h.5c.2,0,.3.4.2.5l-.6-.4c0,.3,0,.4-.2.5,0-.2,0-.4,0-.5l-.6-.2.2-.2v-.3l.5-.3-1-.3c-.4.9.3.5,0,1.1s-.2,0-.2,0v-.2l-.5-.4s0-.3,0-.3h-.3c0,.3,0,.5.2.8l.2-.3c0,.3,0,.5-.4.5s-.4-.2-.5-.4l-.3.6h.2l.2-.2v.2c0,0,0,0-.3.2l.3.5c0,0-.4.2-.6.2l-.2-.6c0-.3.3-.6.3-1l-.4.4v-1c0,0-.2,0-.2-.2l.3-.2-.3-.2c.3-.4.2-.7.2-1.1v-2.5c0-1.3.3-1.6,0-2.6s0,0,.2-.2v-2.1c0-.3,0-1.6,0-1.6h1.3c.4,0,.8,0,1,.3v-.4c0,0,.4,0,.5,0,.6,0,.9-.3,1.7.6l.6.7c.2.3.9.8.9.8l.9,1,.5.5c.6.6,1.2,1.2,1.8,1.7s.6.6.8,1c0,0,.3,0,.6-.3v.4s.3,0,.2.2l-.3.2s.2.2.3.2h.4v.3h.3c0,.2.2.4.4.6l.3.2s.3-.3.3-.4-.4,0-.5,0h-.2,0v-.7c0,0,.3.8.3.8,0-.3,0-.4,0-.6h.5c0-.4-.2-.6-.5-.7h.3c0,0,0-.4,0-.4l-.3-.4h.4s.2-.3,0-.4l-.2-.2v-3.3c-.2,0,0-.2.2-.3-.2-.3-.3-.5-.2-.8s0-.6.2-.6.5-.2.7-.2l-.2.8h.3c0,.2-.2.4-.2.4h-.2c0,.2.2.3.3.3l.5-.7v.4c0,.3.4-.3.5-.8v-.4c0,0,.5.4.5.4,0,0,.3,0,.5-.2s0,.4,0,.5.2.6.3.6h.3v.2c0,0,.4-.5.4-.5v1.7h-.2c0,0,0,.3,0,.4h.2v.3c-.3,0-.6.3-.6.5l.3-.2s.2,0,.4,0v.9c0,0,0,1.9,0,2.1.4.7,0,.2,0,1.3v4.5c0,.4.2,2-.2,2.5s-.4,0-.4,0v-.3l.5-.2ZM89.2,28.5l-.6-.2-.2.2v-.3c0,0-.3.6-.3.6l1.2-.3h0ZM89.7,29.1c.2,0,.4-.4.3-.5,0-.2-.3-.3-.6-.3,0,0,.3.8.3.8ZM101.4,31.1h-.3s0,0,0-.2l.2-.2-.2-.2v-.7c-.4,0-.5,1-.5,1v.2c0,0,0,.2,0,.2h0c0,0,.3.4.4.3s.2-.3.2-.4h.2ZM88.6,31.6h.2v-.2h0l-.3-.5v.4l-.4.3c0,.2.5,0,.7,0h0ZM89.8,31.2h-1c.2.3,1,.9,1.1.4s0-.4,0-.4ZM87.6,31.5h-.3v.6c0,0,.3-.6.3-.6ZM90.5,32c0,0,.3-.2.2-.3s-.2-.2-.2,0l-.2.3c-.7-.3.7.4.2,0h0ZM88.9,32.2l.2-.2-.2-.2s-.4.3-.2.3.2,0,.2,0h0ZM88.4,32.3v-.4h-.5v.2h.2s.3.2.3.2ZM89.7,31.9s0,.2,0,.2h.2s0,0,0,0-.2,0-.2,0h0ZM89.7,33.7c0-.4,0-.3,0-.2l.2.2s.2.2.2,0v-.4h-.2l.2-.5-.8.3c0,.2,0,.3,0,.2l-.2-.2v-.6l-.3.2s-.2,0-.3,0c0,.2-.5.2-.7.3s-.2.3-.2.2l-.2-.2s-.2,0-.3,0,0,.3.2.3l.3-.2v.3h.3c0-.2,0-.5.2-.4.3,0,.7.3,1,.4,0,0,.6.2.6.2ZM90.8,33.2c0,0,0,0-.2-.2,0-.2,0,0,0,0s0,0,.3,0h-.1ZM96.3,36.3s0,.2,0,.2.2,0,.2,0v-.3h-.2ZM88.7,37.5c.2-.2.3-.5.2-.5h-.5l.3.4h0ZM99,37.4h-1.4c0,0-.2-.2-.2,0v.4c.4.2,1.3.3,1.6-.2h0ZM96,37.4c0,0,.2.3.2.2v-.2h-.2ZM88.1,37.7s.2.3.2.2v-.2h-.2ZM86.1,38.1l.3-.4c-.2,0-.4,0-.4,0s0,.4,0,.3h0ZM87.2,38.2l.2-.2c0,0,0,0-.3-.2v.5h.1ZM101.1,38.7c-.3,0-.6,0-.7.3.3,0,.5,0,.7-.3Z"/>
  <path d="M114.2,17.1c0-.5-.6-.6-.9-.9l-.7-.8c-.4-.5-.7-.9-1.4-1.1v1.5c0,.5-.2.6,0,.9.4,1.5,0,0,0,1.4v1.1h.3l-.4.9.3.2s0,.2-.2.2l-.5.3h-.5l.3.3v.3h.3v.2h-.3s0,.3,0,.3h.5s0,.3,0,.4-.2,0-.5,0c0,.3.3.5.5.6h-.4c0,0-.3-.3-.3-.3l.3.7-.5-.4-.3.4v-.8l-.4.5.4-.8-.7.5h-.2l.2.2h-.4l.2-.3v-.3s0-.2,0-.3-.3,0-.3,0,0,.2-.2.4l-.4-.3.5-.3c0,0,0-.3-.3-.4,0,0,.2,0,0-.2l-.3-.2c.3,0,.5.2.7.5l-.2-.7.4-.6-.6.3v-1c.2,0,0,0,0,0l-.2.3s-.3,0-.2,0c.3-.3.3-.5.2-.8s0,0-.3-.4c.4,0,.4-.6.2-1s0-.5,0-.7v-1.2c0-.3,0-.6-.3-.8.2,0,.3,0,.3,0,0,0-.3-.2-.3-.2l.3-.2c0-.4,0-.7,0-1.2v-1.2s-.2-.2-.2-.3c0-.5,1.3-1.3.3-1.3s0,.2,0,.3v.2c0,0-.4,0-.3,0s0-.2,0-.3v-.4c0,0,0-.2.2-.4h-.3v-.2c0,0,.4-.8.4-.8,1.2,0,1.2-.2,2.6,0l.5-.4v.2c.3.2.5-.2,1.1.3s.7.5,1,.8h0c0,0,.2,0,.2.2l.7.7h.3-.2c.4.4.7.7,1,1.1l1,1,.8.7c.3.3.6.6.7.9h.3v.4h.2c0,0,0,.3,0,.3l.9.6v.4h.3c.5.4,1,.6,1.1,1.2v-1.2c0,0,0-.4,0-.4.4-1.6-.4-.9,0-1.7s0-.5,0-.7v-1.7s-.2-.2-.2-.3l.2-.2v-.8c0-.4-.3-.9.2-1.3l-.3-.2c.3,0,.5,0,.7.2v-.3h0c0,.1,0,.3,0,.4h.4s-.2,0,0-.2h.2c0,0,.5.4.5.4l-.2.5h.4c0-.2.2-.5.3-.8s.5,0,.6.3v-.3c0,0,.5.6.5.6v.2c0,0,.2,0,.2,0l-.3.3s.2.3.2.4c0,.3,0,.6.2,1.1,0,.6-.2,1.2,0,1.8l-1,1.1c-.2.2-.6.5-.8.7-.2.2-.3.4-.5.6-1,1.1-1,.6-1.5,1.5.6.2.7.6,1.1,1.1s.4.4.6.6l.5.6c.2.2.5.4.7.7l.7.7c.2.4,0,.9,0,1.4v.8h-2.6c-.8,0-1.7-.5-1.7-1.3h-.3c0-.3-.5-.4-.6-.5-.2-.3-.7-.6-.9-.8l-.9-1c-.2-.3-.4-.5-.7-.6l-.3-.5c-1.1-.6-.7-1.1-1.5-1.3v-.2ZM107.8,11.9c.2,0,.3,0,.3,0v-.2h-.2c-.2,0-.3,0,0,0v.2ZM113,13.5v-.7c-.3.2-.2.5,0,.7ZM112.8,14l-.2-.2-.2-.2s0,.3,0,.3h.4,0ZM110.2,17.7c0-.5-.2-.7-.2-1.3l-.9.3.8.6c0,0-.3.2-.3.3s.2.3.3.3h.3v-.2ZM110.1,19.5h-.3l-.2.2.5-.2ZM119.7,20.7v-.9c-.2.3-.4.7,0,.9ZM122.2,20.9s.2.2.3.2,0-.2,0-.3-.3,0-.3,0h0ZM119.8,21.6c.3-.2.4-.2.4-.3l-.2-.4s-.2.7-.2.7Z"/>
  <path d="M40.2,13.9c0-.2-.7,0-.8,0-1-.5-1.3-1.7-2.3-1.5h-.3c0,0-.4.2-.4.3-.2-.3-.6-.2-1-.2h-.7c-1,0-2.1-.4-2.1.5s0,.7-.2,1h-.5l-.4.4.4.4-.7.4.4.6-.3.3c.3.3.5.5.4.9l-.8-.2s-.1.2-.2.3c0,0,.6-.3.9.5s0,.5,0,.7v.5l-.2-.2h-.5c0,0-.3-.2-.3-.2v-.6c.2,0,.3.2.3.2l.3-.2c-.2-.3-.5-.3-.8,0l-.4.2s-.2-.3-.2-.4,0-.3.2-.4c-.3-.2-.7-.4-1.1-.3l-.2-.8c-.6,0-.5-.5-.7-.8-.3-.5-.3-.8,0-1.3v-.7c.1,0,.3-.3.5-.4,0,0-.1-.3-.2-.3s-.3,0-.5,0l.3-.5.4.2v-.2l-.2-.2c0-.3,0-.9.5-.9,0,0-.3,0-.4-.2v.2h-.3c0-.4.4-.8.7-1l.2-.2v-.2h-.3l.8-.5.2.2h.2c0,0,1,0,1,0v.3c.3,0,.6,0,1.1,0h-.4l.9-.4v-.2q-.2,0,0,0c.4,0,0,.4.6.6s.3,0,.6-.2v.3s.4,0,.4,0,.2-.5.3-.5h.8c0,0,.4.3.6.3s.4-.2.6-.3c0,0,.3.3.4.2l.3-.3s.3,0,.4,0h2l.9.8.5.6c0,0,1.5,1.3,1.2,1.2h.4l-.2.2s0,0,.3.2c.3,0-1.3.3-.7.4h.6s0-.2,0-.3l.6.6.6.6c1.1,1.1.6.7.8,2,.2,1.3,0,.7,0,1v1.9c0,2.3-.3.9-.6,2.2s-.4.4-.4.5l-.6.9-.3-.2c0,.4-1.1,1.3-1.2,1.1l-.7.6v-.4c-.5.9-.4,0-1.5.7l-.8-.5c0,0-.2.4-.3.4h-.8c-.1,0-.2-.3-.2-.3v.3c-.3.3-.6-.2-1.1.2v-.3c-.2,0-.4.2-.5,0,0,0-.3,0-.3-.2,0-.2.2-.4.3-.5l-.3-.2s0-.3,0-.3l-.2-.4v-.6l.5-.3.4-.7-.5-.6h.5c0,.5.3.8.7.8s.8-.4.8-.9h.5v.2h.3l.5.6v-.9l.3.3c.3.3,0-.6,1-.9h.2l-.2-.2.7-1.1c-.3-1.1.3-2-.7-2.4,0,0,.3-.3.2-.3h-.5c0,0,.6-.2.6-.2l-.2-.5v-.2ZM40.1,10.5l.2-.4-.2-.2v.6ZM28.7,12.7c.3-.2.3-.6.2-.8-.1.3-.2.5-.2.8ZM41.3,12.5s0,.4,0,.3h0v-.3h-.3.1ZM43.9,14.4v-.7c-.3.3-.4.6-.3,1l.3-.2h0ZM30.2,14.6l.4-.7-.8.4c0,0,.3.3.4.2h0ZM43.4,14.8h-.7c0,0,0,.5,0,.6,0,0,.7-.6.7-.6ZM29.6,15c-.1,0-.4.2-.3.2l.2.2s.1,0,.1,0,0-.3,0-.3ZM44.2,15.3h-.6l-.3.6c.2.2.5.2.6,0s.2-.4.2-.6h0ZM44.3,16.6c0-.2,0-.5-.2-.4h-.5c0,0,.6.4.6.4h.1ZM44.1,17.1s0-.2-.2-.2-.2,0-.3.2h.5ZM40.6,20h-.3s0,0-.2.2l.5-.2ZM41.5,20.1h-.5c0,0,.2.2.2.2l.3-.2ZM39.3,22.2v-.3s-.3,0-.3,0,0,.3.3.4h0ZM39.7,22.9c.3-.3.3-.4,0-.4l-.3-.2.2.6ZM37.2,22.5l.2.2v-.2c.2-.2-.3,0-.2,0Z"/>
  <path d="M76.4,11.1l-.4-.5v.7s-.2.2,0,.3l.5.2-.4.6h-1.4c-.2,0-.4,0-.5,0l-.7.3c-.3-.2-.5-.3-.8,0,0-.3,0-.4-.2,0h-.2c-.2-.2,0,0-.8,0s-.4,0-.5,0-.2.4-.2.5v.9c0,.2,0,.5-.2.7.4.5,0,1,0,1.6,0,1.4,0,1.1,0,2v.9s-.3,0-.3,0-.6-.8-.6-.5.2.3.2.4v.4c-.2,0-.6,0-.7,0l-.2-.9-.3-.2v-.5c-.2-.3-.7-.9-.9-1.1-1.7-1.4-.3-1.6-1.1-2.5l.3-.9s0,0,0-.2,0,0,0,0h.4l-.2-.2c-.4-.3,0-.8,0-1.3s0-.6.2-.8c1.3-2,2.3-1.3,2.3-2.2l.2.3s1.3,0,1.4-.2v.2h.3c.6-.3,1,.5,1.5-.4v.3h.8s0,.2.2.2c1.5-.4,1.3.2,2.7-.3s0,.2.2.3l.3-.2c.3-.2.2.3.6,0s0,0,0,0v.3c.4,0,1-.4,1.3,0l.6.8v-.6c0-.2.6-.2.8-.2h.4c0,0,0,.2.2.4l.2-.3.2.3h.3v-.4h1.8l-.2,1c0,.4,0,.6.2.8v1.4c0,.4,0,.5-.2.6l-1.1.2c-.7,0-.7-.4-2.4-.2l.4-.4s0-.3-.2-.4l.3-1.1-.6-.5v-.2c0,0,0-.2,0-.2l-.3.2v.4c0,.2.2.4.3.6l-.5,1.1h.4s.2.2.2.3h-.8c0,0-.7,0-.7,0l.3.4h-1.8c0,0-.4-.5-.3-.7l.2-.8.5.5s.4-.2.4-.3c0-.3-.3-.2-.7-.8s-.7-.2-.8,0l.4.2v.4l-.2-.6ZM76.8,10.3c0-.2,0-.5,0-.7l-.3.2s-.2,0-.2,0l-.2.7s.2-.2.3-.2l.3.2v-.2ZM79.2,10.9c0,0-.5-.2-.6,0s0,.3.3.4c.2,0,.4,0,.3-.3h0ZM78.8,11.7v.3h.2v-.2h-.2ZM77.6,12c0,0,.2.3.2.2v-.2h-.2Z"/>
  <path d="M15.7,41.8s.1-.3.2-.4l-.5-.3c-.7-.2.4-.3.3-.7s-.1-.2-.4-.3h.2v-.2c-.5.2-.9.4-1.2,0-.1.2-.3.4-.3.5s.2.4.3.4v-.4h1s.2.2.1.2c-1.3.5.1,0-1,.5h.1l-.5.7h-.4c0,0-.5.2-.5.2,0,0-.3-.3-.3-.2s-.3.2-.4.3l-.7,1.2.2,1.5c0,.6.4,2.5-.6,2.4s-.5-.4-.5-.7c0-1.3-.2-1.5-.4-3s.1-.5,0-.6-.3-.3-.4-.5c-.2-.2-.4-.4-.7-.5l.3-.6c-.3-.2-.4-.4-.3-.7s0-.3,0-.3h-.3s0-.4-.1-.5-.3,0-.5,0l.4-.6h.2c0,0,.2,0,.2,0s-.1,0-.2,0h-.6c0,0,.1-.4.1-.4v-.3l.2-.4s-.2-.2-.4-.3c.3,0,.6,0,.9.3.2,0,.2-.5,0-.6l-.7-.2c0,.2-.1,0-.1,0l.3-.4v-.4s0-.2-.2-.3c.2-.5,0-1.2-.4-1.7.4-.7.4-1.7.2-2.3.5-1.3-.3,0,.5-1.2s.4-.5.6-.8l.3-.2s.2,0,.4,0l.3-.8.2.3h.3l.2.4v-.3h.4l-.3.4c0,0,.5,1.1.6,1.2l.2-.3s.4,0,.3,0c-.2.3-.3.5-.3.7v.5c-.1,0,.1,0,.1,0,0,0,.2,0,.2,0-.2,1.3,0,.3,0,1.4s.3.9.2,2.6l-.3.2s.1.2.1.3v.6c-.1,0,.4,0,.4,0l-.2.3s-.1,0-.3-.2c0,.4,0,.7.1,1h-.2c0,0,.1.2.2.3l.4-.6c.5.3.9.3,1.2,0,0,0,.1.2.2.2h.3l.6-.2v.3c.1.4.2,0,1.1,0h1c.2,0,.3,0,.4,0s.2-.2.4-.3l.2.3h3c.4.3-.2,1.1.2,1.1,0,0-.1.3-.2.5v.7c0,.3.2.8.3,1.3-.4,0-.8.2-1.1.2h-.7c-.3,0-.6,0-.8,0l-.7-.4c0,.2,0,.4,0,.3l-.3-.2q-.2,0,0,0l.6-.4v-.2c-.2,0,0,0,0-.2.2,0,.4-.3.3-.6s-.4-.3-.6-.2l-.6.3c-.2,0-.4.2-.6.2l-.5.3v.4c0,0-.3.3-.4.2l-.3.3ZM10.3,30.6l-.3-.2v.3s.2,0,.2,0,.2-.3,0-.2h.1ZM10.8,30.6h-.4c0,0,.1.3.1.3,0,0-.2,0-.3.2h.6c.2,0,.1-.4,0-.4h0ZM9.9,31.1c0-.4-.4-.4-.7-.3l.7.3ZM10.6,31.7c.2.2.4,0,.4-.2v-.3c0,.2,0,.3-.1.3h-.2v.2ZM11.2,32.7l-.6-.2c.1.2.4.3.6.2ZM10.7,33.2h.4v-.2h-.3v.2h0ZM10.3,36.8s0-.2.1-.2h.3l.5-.4-1.4.2c-.5-.3-1.1-.2-1.3.2h.9l-.2.5c.2,0,.4-.2.5-.3s.3.3.3.3c0,0,.3-.3.3-.3ZM16.3,39.7c-.2-.2-.3-.4-.3-.4l-.2.3h.5ZM13.8,39.9l-.3-.5c0,.3.1.5.3.5ZM18.8,39.9c0-.6-.6.5-1.8-.3v.5c.2,0,.5.2.7.2.7-.3,1.2.2,1.1-.3h0ZM15.8,39.9v.3c0,.1.1.2.1,0v-.2c0,0,0-.2-.1,0h0ZM12.9,40.7l.3-.3s-.1-.3,0,0l-.3.3s.1.3,0,0ZM19.3,40.9s-.3,0-.3,0v-.4l-.3.3.5.5.2-.3s0-.2.1-.3-.2,0-.3,0,0,0,0,.3h0ZM21,40.7c-.2-.6-.7-.2-1-.3l1,.3ZM13.8,40.9h-.2c0,0-.3,0-.3,0,0,0,.1.2.2.2h.3v-.2ZM13.9,41.7l-.3-.5v.5c-.2,0,.3,0,.3,0ZM19.7,42.1c.2,0,.3-.4.2-.6-.1,0-.3,0-.4,0s0,.4.2.4h0Z"/>
  <path d="M71.1,19.6c.8,0,1.6,0,2.4,0h6.1c0-.7,0-1.1,0-1.6h-5s-.3,0-.3-.2l1.1-1.1.7-.7.7-.8c.2-.2.7-.4.9-.7s.2-.2.2-.2l.2.2-.2.3s0,0,.3.2l.2-.7.3.4s.3.2.2.2l-.2.2h.5c0,0,0,0,.2-.2h.3v-.5c1-.6,1.4,0,1.5,0l.3-.2c0,0,.6,0,.6,0v.6s.4,0,.4-.2v-.5l.4.4.3-.2s.4.6.3.6l-.3.3h.3v3.1s.3,0,.2,0l-.3.2v1.3c-.2.5-.4.9-.5,1.4-.5,1.7.3,1.5-.2,2.9s-.4.4-.6.3c-.6,0-.7-1.1-.9-1.7-.8.5-1.6.4-2.4.4h-4.4l-.6-.6-1.1-1.1-1.3-1.3c-.2-.2-.4-.2-.4-.6h.1ZM80.9,15.6v-.6c0,0-.2,0-.2-.2s-.2,0-.2,0v.2c0,0,0,.4,0,.4h.4v.2ZM79.5,15.3s0,.3,0,.3l.2-.2h-.3,0ZM81.2,15.2s0,.2,0,.2.3.2.3,0v-.3h-.3ZM82.2,16.4c0-.4-.4-.7-.7-.8,0,.3,0,.6,0,.7s.4.3.6,0h0ZM81.1,17.1h.6c0,0,.2.2.2,0v-.3c0,0-.6.2-.8-.2s-.3-.4-.5-.6v1.5h.3v.8s.3,0,.3-.3v-.6l.5.3-.7-.8h0ZM83.2,17.6c-.2-.5,0-.6,0-1.1-.4.4-.5.8-.4,1s0,.3,0,.3c.3,0,.6,0,.6-.2h0ZM80.5,18.1l-.2-.6c-.2,0-.3.5.2.6ZM81.5,19.9l.6-.2c0,0-.3-.4-.5-.5s-.4,0-.5.2l.4.4h0ZM82.5,19.7s.2-.2,0-.2,0,0,0,0c0,0,0,0,0,.3-.2,0,0,0,0,0ZM83.2,19.5h-.5s0,0,.3.2,0,0,.2-.2ZM77.1,22c-.3-.3-.7-.4-1,0,0,0,.3.3.5.3s.4,0,.4-.2h0Z"/>
  <path d="M59.9,24.1c-1.3-.2-.9-1.1-1.6-.8s-.2.3-.3.5c0-.7-2-.7-2.4-.6h-6.9c-.2,0-.8,0-.8-.3v-.9c0-.3,0-.6.3-.7v.6h.7c0,0-.6-.7-.6-.7l.7-.7c.3-.4.7-.6,1.1-1s1-1.1,1.7-1.6c.2.2,0,1.3.2,1.4s.4,0,.5,0h7.8c.3,0,.7-.2.9,0,.4,0,.8.2,1.2,0l1,.2c.3-.2.8-.2.9.2-.4.3-.5.5-1.1,1.1l-.6.6-.7.7c-.2.2-.2.4-.5.5-.3.6,0,1.7-1.3,1.5h-.2Z"/>
  <path d="M59.2,12.5s-.4,0-.5,0-.2-.2-.4-.5l-.4.4h-.9c-1.1-.4-.7,0-1.9,0h-3.1c-.2,0-.4.7-.4,1.1s0,.4,0,.4c0,0-.7.5-1.4,0s-.7,0-1,0h-1.4c-.2-.2,0-.7,0-.9,0-1.6.5-.9.8-2.2,0,.2.4,0,.4,0,0,0,0,0,0-.2.2-.2.5-.3.8-.3l.4-.3v-.2c0,0,.1-.2.1-.2.2.2.5.3.7.3v-.2c0,0,0,0,0-.2l.2-1,.4.4c.2-.2.3-.5.4-.5h1.5s1.4,0,1.2,0l.2-.2v.3h.2v-.2h.9s.2,0,.3.3v-.2h4.8l.3-.2.4.2s.2,0,.3,0h.2c0,0,0-.2,0-.2.6.2.4.7.4,1.2v.7h-.2s-.2,0,0,0h.4v1.5s-.4.3-.5.3h-.2c0-.2,0,0-.2,0h-1.3c0-.3-.4-.6-.6-.5v.4l-.3.2c0,0-.3-.3-.4-.3s0,0-.2.3l.3.4ZM52.3,11q-.4-.2,0-.3c0-.2-.3-.4-.6-.6,0,0,.3-.2.2-.3l-.3-.4s-.2,0-.2,0l.2.4c0,.2-.4.6-.6.6v.2c.2,0,0,.2,0,.3s.2,0,.2,0v-.2l1,.3h0ZM61.2,10.5l.5-.8v-.3.2c-.3.2-.4.3-.7.3l.3.6h0Z"/>
  <path d="M98.1,23.4l-.3-.3s-.3.2-.4.2h-3.4c-.5,0-1.1,0-1.5,0h-.7c0,0-.4,0-.4,0h-.4v-.4l-.3.4c0,0-.5,0-.6,0l.3-.2v-.4l-.2-.6h-.2c0,0-.2,0-.2,0,0,0,.2,0,.2-.2h.3v-.5l-.5-.3-.3,1.4.7.2c-.2.6-.7.7-1.2.6h-1.2v-.6s0-.3-.2-.3h-.5v-.5c0-.2.4-.3.8-.5l-.2-.4c.3-.4.7-.7,1.1-.9s.4-.4.5-.4c0,.2.3.6.5.7.4.2.4-1.3.3-1.4l.5-.7c.8-1.2,0,1.2.8,1.2l.8-.2.2.2.2-.3.2.3h.4c0,.2.2.4.5.7l-.2-.7.7-.2v.2h.6s0-.3.2-.4c0,.5.5.3.8.3.6,0,1.2,0,1.7-.2,0,.2,0,.4.3.4s.5-.2.5-.4c0,0,.4.3.6.3h1.7c.2,0,0-.2.8,0h.7l.3.2c.2.2,0-.5,1.4,0-.6.5-1,1-1.5,1.5s-1,.7-.9,1.4c-1.3,0-.6.8-1.5.8h-1.3v.4l-.2-.2h-.3ZM93.3,20.3c.2,0,0-.3,0-.4s-.4,0-.4,0h.3c0,.2.2.3.2.3ZM96.3,20v.3c0,0,0,0,0,0v-.2s0,0,0,0h0ZM88.9,22v-1.1c0,0-.6.6-.6.6l.6.5ZM99.8,22.3h.6v-.8l-.4.2v.2c0,0-.3.2-.3.2v.3h.1ZM100.7,21.5s0,.3,0,.3h.2v-.3s-.3,0-.3,0ZM88.1,22c0-.2-.4-.3-.4,0s.4,0,.4,0ZM91,22.8c.4,0,.5,0,.6-.2s0-.3,0-.4l-.5.6ZM98.9,22.6h.3v-.2h-.4c0,0-.2.2,0,.2h.2ZM89.2,22.4s0,.2.2.2h.2v-.3h-.4ZM92.5,23v-.5c0,0-.5.5-.5.5h.5Z"/>
  <path d="M95.2,12.4c-.5,0-.9,0-1.3,0-1.1,0-.9.4-1.8.2s-.4,0-.5,0-.2.3-.3.4l-.2-.5v.8c0,0-.4-.3-.5-.4s.2,0,.2-.2,0,0,0,0h-.2c0,0,0-.4,0-.5s-.2-.2-.2-.2c0,0,0-.2.3-.3h-.7c-.2,0,0,.2,0,.2v.2c0,0-.2.2-.2.2,0,0,0,0,.3,0,0,.2-.2.4-.4.6l.5.2h-.5l.2.3c0,0,0,.9,0,.7h-.7c-.5,0-.9-.3-1.5,0l-.7-.9v-.9c.2,0,0,0,0,0,.2,0,1.6-1.6,1.7-1.6,0-.2.2-.5.4-.6v.2h0c0,0,.7-.7.9-.9,1.2-1.2.6-.5,2.6-.7s.9.2,1.2-.3l.2.4.2-.2s0,0,0,.2h.3s.2.2.3.3c1.5-1,1.7-.3,1.8-.3h.4c0,0,.2,0,.2,0,0,0,0,0,.2-.2,0,0,.4.3.6.3l.6-.4.2.4s.3,0,.3-.2l.5.3c0,0,.4,0,.4.2v.6c.3,0,.6,0,1,0-.2-.3-.2-.6,0-1,.2,0,.2.3.2.6l.2.7c-.2.2-.4.4-.4.7l.5-.5.5.4s0,.3,0,.3h-.5l.6.3-.8.3.8.5h-.9q0,0,0,0c0,.3,0,.2,0,0,0,0,0,.3-.2.3h-2.7c-.4,0-.9,0-1.4,0s-.8-.2-1.2.2l-.4-.3h-.2ZM99.2,10.7c0-.3,0-.6,0-.9-.3.3-.4.7,0,.9ZM94.8,10.7v-.6c-.2,0-.5,0-.6.2s0,.6,0,.5h.6ZM100.9,10.6v-.5c-.2,0-.2.3,0,.5ZM98.5,10.9l.3-.2s0,0-.2-.2,0,0-.2.2v.2h0ZM95.2,12.1h-.6s.2,0,.3,0,.2,0,.3,0ZM89.1,13v.4c0,.1,0,0,.2,0h.2c.3-.2,0,0-.4-.3h0Z"/>
  <path d="M95.6,18c-.2,0-.4,0-.5-.2s-.4.2-.5.4v-.4h0c0,0-.2.2-.2.2l-1-.2-.3.2s-.3-.2-.4-.2c-.3,0-.7,0-1.1,0,0-.2.3-.3.4-.5l1.6-1.6.3.3h.5c0-.2-.3-.3-.5-.4v-.2h.4c0-.2.2-.6.4-.7l.6-.5c.2-.2.8.2,1.1.2l.7-.3c0,.4,0,.2.2,0h.7v1c0,0,0,.3,0,.3h.3c-.4.2-.2.6-.2.9v1.2c0,0-1,.2-1,.2l-.2-.2h-.3c0,0-.2.2-.3.2s-.2-.2-.3-.2l-.2.3-.3.2Z"/>
  <path d="M55.9,17.9c-.4,0-1.3,0-1.6,0,0,0,0,.2,0,.2s-.2,0-.2,0h-.5c0,0-.2,0-.2,0,0,0,0-.2,0-.2l-.6.2c0,0-.3-.2-.4-.3l.7-.8c1-1,.7-.5,1.8-1.7s.7-.8,1.2-1.1h.7c.2,0,.3,0,.4,0s.3.2.4.3l.2-.3c.3.3.5.4,1,.5.3,1.1-.2.4.2,1.4.4,1,0,.2-.3.3.4.2.2,1.9,0,1.7h-2.6ZM58.1,15l-.4-.3-.2.6c0,0,.3.2.4.3s.2,0,.3,0c.2-.2-.4-.3,0-.6ZM57.4,15.8c-.3-.3-.6-.3-.8,0,0,0,.3.3.4.2l.5-.2h-.1ZM58.2,16.8c0-.2-.2-.6-.4-.6v1l.4-.3h0ZM56.4,16.6s0-.2,0-.2,0,0,0,0c0,0,0,0,0,.2l-.2.2h.4ZM56.7,16.4s0,.4,0,.4h.4c.1,0,.2-.3,0-.4s-.3,0-.4,0h0Z"/>
  <path d="M86.3,42.1s-.2,0-.2,0v-.3l-.3.3-.2-.2c0,0,0-.2,0-.3v-.2c-.2,0-.2-.3,0-.3h.4s.3,0,.2.2c0,0,.3,0,.3.2l-.3.2v.4h0Z"/>
  <path d="M36.7,20s-.2-.3,0-.3.3-.2.5-.2,0,.3,0,.3-.2,0-.4.2Z"/>
  <path d="M90.9,14c-.2,0-.2-.3,0-.6,0,0,.2,0,.3,0s0,.5-.2.5Z"/>
  <path d="M26.3,42.6v.4l-.7-.4h.7Z"/>
  <path d="M32,32.3c-.1.3-.3.2-.6.2,0,.2,0,0-.1-.2,0,0,.6-.2.7,0Z"/>
  <path d="M89.5,40.5s0,.2,0,0l-.2-.2-.2-.2v-.3l.5.5h-.1Z"/>
  <path d="M101.7,28.5l-.4-.5s0-.3.2-.2v.2c.2,0,.4.2.4.3s0,.3,0,.2h0Z"/>
  <path d="M133.6,42.2v-.3l-.7.2.4-.5.2.2h.3l-.3.4h.1Z"/>
  <path d="M32.7,31.9c.2,0,0,.8.2.4,0,0,0,.2-.2.2l-.2-.2-.2-.2s0,0,.3,0h.1Z"/>
  <path d="M39.1,30.7v-.2l-.2-.3h.2l.2.2-.3.2h0Z"/>
  <path d="M12.4,36.5s.4,0,.3.2-.2.2-.2.2v-.4h-.1Z"/>
  <path d="M35.4,20q0,.2,0,0l.3-.6c0,.2,0,.4-.2.6h0Z"/>
  <path d="M30.2,38.1h-.5l.5-.4v.3c.1,0,0,.2,0,.2h0Z"/>
  <path d="M11.8,30.2c-.1.3-.2.4-.2.4,0,0-.2,0-.2-.2l.2-.3h.2Z"/>
  <path d="M83.5,21.9s-.2,0-.2,0v-.4s.2.2.2.3h0Z"/>
  <path d="M90.4,35.9v.4h-.2s0-.2,0,0c.3-.2.3-.3.2-.2h0Z"/>
  <path d="M15.2,41.5h-.4v-.3h.3v.3h0Z"/>
  <path d="M87.6,41.6h-.2v-.5c0,0,0,0,0,.5h0Z"/>
  <path d="M45.5,30.6h-.5c0,0,0-.3.2-.2l.4.2h-.1Z"/>
  <path d="M31.7,37.5v-.5c0,0,.2.2.1.2v.3h-.1Z"/>
  <path d="M24.7,36.2v.3h-.4l.4-.3Z"/>
  <path d="M44.4,36h.4c0-.2,0,0,0,0h-.4Z"/>
  <path d="M31.7,9.1v-.2c-.2,0-.3-.2-.2-.2h.3c0,0,0,.4,0,.3h0Z"/>
  <path d="M34.4,40.5s0,0-.2,0-.3,0-.2-.2l.2-.2.3.3h0Z"/>
</svg>