<?xml version="1.0" encoding="UTF-8"?>
<svg id="Layer_1" xmlns="http://www.w3.org/2000/svg" version="1.1" viewBox="0 0 150 150">
  <!-- Generator: Adobe Illustrator 30.1.0, SVG Export Plug-In . SVG Version: 2.1.1 Build 136)  -->
  <path d="M71.8,124.2v11.3c-.1,0-32.5,0-32.5,0v-56.3s-5.5-.1-5.5-.1c-.6,0-1-.6-1-1.3v-18.1s6.5-.2,6.5-.2v-12.7s-6.5-.1-6.5-.1v-12.1c0-.4.8-.9,1.1-.9h5.3s.1-6.2.1-6.2l6.4-.2v-6.3c.1,0,6.4-.2,6.4-.2l.2-6.3h45.1s.2,6.3.2,6.3h6.3c0,0,.1,6.4.1,6.4l6.4.2v6.1c0,0,5.8,0,5.8,0,.4,0,.8.7.8,1v11.9s-6.5.2-6.5.2v63.9c0,.3-.8.7-1.1.7h-5.3s-.2,6.3-.2,6.3h-6.4c0,0-.1,6.4-.1,6.4h-25.7ZM103.7,33.7v-5.8c.1,0-5.3,0-5.3,0-.9,0-1.3-.9-1.1-1.6.4-1.7.2-3.4-.2-5h-44.3s0,6.1,0,6.1c-.2.2-.9.5-1.2.5h-5.4s0,5.8,0,5.8h57.3ZM52.2,46.6v-6.1c0,0-6,0-6,0v6.2c-.1,0,6,0,6,0ZM99.2,59.6c-.5,0-1.6-.2-1.6.5v6.3c0,0-6.6,0-6.6,0v-6.8c0,0,.2-6.2.2-6.2h12.6c0,0,0-5.4,0-5.4v-7.4s-6.1,0-6.1,0v6.4c-1.6,0-5.7.3-6.7-.3v-6.1c0,0-6.1.1-6.1.1v5.7c-.1.3-1,.6-1.4.6h-5.4c0-.1,0-6.4,0-6.4h-6.1c0,0,0,6.3,0,6.3-2,.2-5.2.3-6.7,0v-6.2s-6.2,0-6.2,0v4.5c0,.6-.2,1.4-.4,1.9h-6.1c0,.1,0,31.2,0,31.2,0,.3.6.8.9.8,1.9-.1,3.9-.2,5.6.3v3.9c0,.7,0,1.4,0,2.2l6.3.2v6.7s-6.3,0-6.3,0c-.2,2.1,0,3.7,0,5.6v13.2c2.1.5,6.5-.7,6.5,1v5.5s31.8,0,31.8,0v-6.3c.1,0,4.3,0,4.3,0,.7,0,1.4-.1,2.1-.3v-18.6s-6.3-.1-6.3-.1v-6.7s6.3-.1,6.3-.1v-18.7c0-2.3.2-4.5,0-6.7s-2.3.2-4.6-.2Z"/>
  <path d="M65.7,105.1c-1,0-.7-1.3-.6-1.8l.2-5.2h32.5s0,7,0,7h-32Z"/>
  <path d="M65.5,59.7v6.5c0,0-6.8,0-6.8,0v-6.7s.1-6.4.1-6.4h12.9c0,0,.1,5.2.1,5.2,0,.5-.8,1.2-1.3,1.2h-5Z"/>
  <path d="M84.9,85.7c-.5,0-.4-1.4-.4-1.9v-4.7c.1,0,.7-.4,1-.4h5.9c0,0,0,7,0,7-2.4,0-4.1,0-6.5,0Z"/>
  <path d="M72.1,85.7c-1.2,0-.6-2.8-.6-3.3,0-1.2-.4-2.5.5-3.6h6.4s0,7,0,7h-6.3Z"/>
</svg>