<?xml version="1.0" encoding="UTF-8"?>
<svg id="Layer_1" xmlns="http://www.w3.org/2000/svg" version="1.1" viewBox="0 0 150 88">
  <!-- Generator: Adobe Illustrator 30.1.0, SVG Export Plug-In . SVG Version: 2.1.1 Build 136)  -->
  <defs>
    <style>
      .st0 {
        fill: #363636;
      }
    </style>
  </defs>
  <path class="st0" d="M13.9,39.7c-.6.5-.4,1.3.3,1.3h23.9c1.2,0,1.6-.5,1.7-1.8.2-1.7,1.2-6.5,1.2-6.9,0-.7-.8-.9-1.3-.3-1.7,2.2-5.6,7.2-9.6,7.2h-2.1c-2.1-2.2-2.4-10.3-2.4-14.6s.3-12.9,2.6-14.8c.7-.5.7-1.5-.6-1.5h-13.4c-.6,0-.9.8-.3,1.3,2.2,1.7,2.6,3.1,2.6,5.5v19.1c0,2.4-.4,3.8-2.6,5.5Z"/>
  <path class="st0" d="M47,17.8c2.6,0,5.2-2.1,5.8-4.7.6-2.6-1.1-4.7-3.7-4.7s-5.2,2.1-5.8,4.7c-.6,2.6,1.1,4.7,3.7,4.7Z"/>
  <path class="st0" d="M42.6,39.7c-.6.5-.4,1.3.3,1.3h12.5c1.3,0,1.3-1.1.6-1.6-2.4-1.8-3.1-9.1-1.4-20.5,0-.8.8-1.9-.6-1.6-2.4.5-5,4.7-11.2,4.7s-.9.8-.3,1.3c2.2,1.7,2.6,3.1,2.6,5.5v5.4c0,2.4-.4,3.8-2.6,5.5h.1Z"/>
  <path class="st0" d="M80.6,37.6c-5.3-2.8-15,2.2-16.8,0-.6-.8,0-1.5,1-2.2,1.8.6,3.9,1,6,1,7.8,0,14.1-4.3,14.1-9.6s-3.7-7.4-8.8-8.8c1.2-.8,3.7-.3,6.1,0,3.5.5,3.8-5.5-.4-5.6-3.6,0-6.7,2.3-7.3,5.1-1.2-.2-2.4-.3-3.6-.3-7.8,0-14.1,4.3-14.1,9.5s2.3,6,5.9,7.8c-1.3,1.1-2.6,2.6-2.2,3.7.8,2.6,4.1,1.8,7.8,2.2,10.4,1.3,13.6,12.3,8.2,14.4-4.9,1.9-12.9-2.8-11.6-9,1.2-5.2-12.6-4-10.3,2.3.5,1.3,1.3,2.5,2.3,3.7v.3l-6.8,17.2c-2.1-5.5-6-15.4-6.1-15.7-1-2.3-1.1-3.8.4-5.5,0,0,.3-.3.3-.4v-.6c0,0-.3-.3-.6-.3h-14.4c-.6,0-1,.8-.2,1.3,2.9,1.7,3.5,3.1,4.4,5.5l1.9,4.7-4.3,11c-2.2-5.5-6.1-15.4-6.2-15.7-.9-2.3-1.1-3.8.5-5.5.4-.5.3-1.3-.3-1.3h-14.5c-.6,0-1,.8-.1,1.3,2.9,1.7,3.4,3.1,4.4,5.5,0,.3,7,17.8,9.6,23.9,1.2,2.8,4.2,2.6,5.1,0l6.8-16.9c2.2,5.6,5.3,13.3,6.9,16.9,1.2,2.8,4.2,2.6,5.1,0l9.8-24.4c1.7,1.4,3.7,2.5,6.2,3.2-5.2,1.5-9,6-9,11.3s5.7,11.9,12.8,11.9,12.8-5.3,12.8-11.9-3-8.9-7.4-10.8c9.9-2.2,16.1-14.5,6.8-19.4h-.2ZM70.9,19.1c2.1,0,3.7,3.5,3.7,7.7s-1.7,7.8-3.7,7.8-3.7-3.5-3.7-7.8,1.7-7.7,3.7-7.7ZM68.4,77.8c-2.1,0-3.7-4.6-3.7-10.1s1.7-10.1,3.7-10.1,3.7,4.5,3.7,10.1-1.7,10.1-3.7,10.1Z"/>
  <path class="st0" d="M86.8,39.7c-.6.5-.4,1.3.3,1.3h12.7c1.4,0,1.3-1.1.7-1.6-1.5-1.2-2.6-7.8-2.6-15.5,1.2-2.5,2.9-3.9,4-3.9,4.4,0,6.4,15.7,2.2,19.4-.6.6-.6,1.6.7,1.6h12.8c.6,0,.9-.8.2-1.3-2.2-1.7-2.6-3.1-2.6-5.5v-4.2c0-7.1-4.4-12.7-11.4-12.7s-4.4,1.4-5.8,3.2c0-3.5.4-7.1,1.1-10.5,0-.8.7-1.9-.6-1.6-2.4.4-5.2,4.7-11.4,4.7s-.9.8-.3,1.3c2.2,1.7,2.6,3.1,2.6,5.5v14.4c0,2.4-.4,3.8-2.6,5.5h0Z"/>
  <path class="st0" d="M120.8,23.3h1.4c.9,2.1.8,5,.8,6.7,0,2.8,0,7.6-2.1,9.6-.6.6-.6,1.6.2,1.6h13c1.4,0,1.3-1.1.7-1.6-1.7-1.3-2.9-8-2.5-16.2h3.1c.8,0,1.1-.7,1.1-1.5s-.3-1.5-1.1-1.5h-3c.2-2.1.5-4.3.9-6.5.1-.8-.4-1.9-1.7-1.3-3,1.1-4.4,7.9-10.5,7.9h-.4c-.8,0-1.1.7-1.1,1.5s.3,1.5,1.1,1.5v-.2Z"/>
  <path class="st0" d="M108.5,59.9c-.5-2.7-3.7-4-6.2-4s-6.2,3.7-7.6,5.8l.5-4.2c0-.8.8-1.9-.6-1.6-2.4.5-5,4.7-11.2,4.7s-.9.8-.3,1.3c2.2,1.7,2.6,3.1,2.6,5.5v5.4c0,2.4-.4,3.8-2.6,5.5-.6.5-.4,1.3.3,1.3h12.5c1.3,0,1.3-1.1.6-1.6-1.8-1.3-2.7-5.9-2.2-13,1.2-2.3,3.4-4.7,4.9-4.7s.6,1.3.3,2.7c-.7,5,10.1,3,8.9-3.1h0Z"/>
  <path class="st0" d="M139.1,78c-6.8-4.3-8.1-14.8-13.9-16.3,1.3-.7,2.6-1.1,4,0,4.7,3,9.2-2.2,4.9-4.9-5.3-3.3-10.8,4.7-14.1,5.6,0-4.5.3-9.4,1.2-13.8,0-.8.7-1.9-.6-1.6-2.4.4-5.2,4.7-11.4,4.7s-.9.8-.3,1.3c2.2,1.7,2.6,3.1,2.6,5.5v14.4c0,2.4-.4,3.8-2.6,5.5-.6.5-.4,1.3.3,1.3h12.7c1.4,0,1.3-1.1.7-1.6-1.4-1-2.4-6.8-2.6-13.8,3.3-.8,4.6,5.1,5.5,8.6.6,2.4.8,3.8-.9,5.5-.5.5,0,1.3.7,1.3h13.5c1.3,0,1-1.1.2-1.6h.1Z"/>
</svg>