<?xml version="1.0" encoding="UTF-8"?>
<svg id="Layer_1" xmlns="http://www.w3.org/2000/svg" version="1.1" viewBox="0 0 150 33.3">
  <!-- Generator: Adobe Illustrator 30.1.0, SVG Export Plug-In . SVG Version: 2.1.1 Build 136)  -->
  <defs>
    <style>
      .st0 {
        fill: #120c18;
      }
    </style>
  </defs>
  <path class="st0" d="M108.6,19h-2.1c-.2,0-.3,0-.4-.2,0,0-.2-.3-.2-.4v-.5c0-.2,0-.3.2-.4,0,0,.3-.2.4-.2h1.8c.2,0,.3,0,.5-.2s.2-.3.2-.4,0-.3-.2-.4c0,0-.3-.2-.5-.2h-1.8c-.2,0-.3,0-.4-.2,0,0-.2-.3-.2-.4v-.5c0-.2,0-.3.2-.4,0,0,.3-.2.4-.2h2.1c.2,0,.3,0,.5-.2s.2-.3.2-.4,0-.3-.2-.4c0,0-.3-.2-.5-.2h-2.8s0,0-.2.3l-1.3,6.2h0c0,.3,0,.4.2.5s.3,0,.4,0h3.7c.2,0,.3,0,.5-.2s.2-.3.2-.4,0-.3-.2-.4c0,0-.3-.2-.5-.2h0v-.3.2Z"/>
  <path class="st0" d="M62.2,13.2h-1.1s-.2.2-.3.3l-1.8,4.3h0l-1.8-4.3c0,0,0-.2-.2-.3-.2,0-.4,0-.4.3l-1.4,6.3v.2s0,.2.2.3h.6c.2,0,.3,0,.4-.2,0,0,.2-.3.2-.4v-4h0l1.7,4.3c0,0,0,.2.3.3h.8s.2-.2.3-.3l1.7-4.2h0v4c0,.2,0,.3.2.4,0,0,.3.2.4.2h.3c.2,0,.3,0,.4-.2,0,0,.2-.3.2-.4v-5.9c0-.2,0-.3-.3-.4,0,0-.3-.2-.5-.2h.2-.1Z"/>
  <path class="st0" d="M81.3,16.5h-1.8c-.2,0-.3,0-.4.2,0,0-.2.3-.2.4s0,.3.2.4c0,0,.3.2.4.2h.3c.3,0,.7.3.5.6-.3.5-.8.8-1.5.8-1.2,0-1.9-.9-1.9-2.3s.8-2.3,1.9-2.3.5,0,.8.2c.3,0,.4.3.6.5,0,0,.2.2.3.3s.3,0,.4,0h.6s.2,0,.2-.2c0,0,0,0,0-.2v-.3c-.3-.5-.7-1-1.2-1.3s-1.1-.5-1.7-.4c-1.9,0-3.4,1.4-3.4,3.7s1.4,3.7,3.4,3.7,3.1-1.2,3.1-3v-.6s0,0,0-.2c0,0,0,0-.2,0h-.3v-.2Z"/>
  <path class="st0" d="M70.5,13.6c0,0,0-.2-.2-.3,0,0-.3,0-.4,0h-1.1c0,0-.3,0-.4,0,0,0-.2.2-.2.3l-2.1,5.9v.3s0,.2,0,.3l.2.2h.6c0,0,.3,0,.4,0,0,0,.2-.2.2-.3l.3-.8c0,0,0-.2.2-.3,0,0,.3,0,.4,0h1.7c0,0,.3,0,.4,0,0,0,.2.2.2.3l.3.8c0,0,0,.2.2.3,0,0,.3,0,.4,0h.6s.2,0,.2-.2,0-.2,0-.3,0-.2,0-.3l-2-5.9h-.1ZM69.4,17.5h-.4s-.2,0-.2-.2,0-.2,0-.3v-.3l.6-1.9h0l.6,1.9v.3s0,.2,0,.3l-.2.2h-.3,0Z"/>
  <path class="st0" d="M86.2,13.2h-.3c-.2,0-.3,0-.4.2,0,0-.2.3-.2.4v5.9c0,.2,0,.3.2.4,0,0,.3.2.4.2h.3c.2,0,.3,0,.4-.2,0,0,.2-.3.2-.4v-5.9c0-.2,0-.3-.2-.4s-.3-.2-.4-.2h0Z"/>
  <path class="st0" d="M93.5,14.4c.3,0,.5,0,.8.2.3,0,.5.3.6.5,0,0,.2.3.3.4,0,0,.3,0,.4,0h.5s.2,0,.2-.2c0,0,0,0,0-.2v-.3c-.4-1.3-1.5-1.9-3-1.9s-3.4,1.3-3.4,3.7,1.4,3.7,3.4,3.7,2.6-.8,3-1.8v-.3s0-.2,0-.2l-.2-.2h-.6c-.2,0-.3,0-.4.2s-.2.2-.3.3c0,.3-.3.4-.6.5-.3,0-.5.2-.8.2-1.1,0-1.8-.8-1.8-2.3s.8-2.3,1.9-2.3h0Z"/>
  <path class="st0" d="M115.1,13.2h-2c-.2,0-.3,0-.4.2,0,0-.2.3-.2.4v5.9c0,.2,0,.3.2.4,0,0,.3.2.4.2h2c2.2,0,3.5-1.4,3.5-3.6s-1.4-3.6-3.5-3.6h0ZM115,19h-.3c-.2,0-.3,0-.4-.2,0,0-.2-.3-.2-.4v-3.3c0-.2,0-.3.2-.4,0,0,.3-.2.4-.2h.3c1.4,0,2.1.7,2.1,2.3s-.7,2.3-2.1,2.3h0Z"/>
  <path class="st0" d="M126.2,19h-2.1c-.2,0-.3,0-.4-.2,0,0-.2-.3-.2-.4v-.5c0-.2,0-.3.2-.4,0,0,.3-.2.4-.2h1.8c.2,0,.3,0,.5-.2s.2-.3.2-.4,0-.3-.2-.4c0,0-.3-.2-.5-.2h-1.8c-.2,0-.3,0-.4-.2,0,0-.2-.3-.2-.4v-.5c0-.2,0-.3.2-.4,0,0,.3-.2.4-.2h2.1c.2,0,.3,0,.5-.2s.2-.3.2-.4,0-.3-.2-.4c0,0-.3-.2-.5-.2h-3.6c-.2,0-.3,0-.4.2,0,0-.2.3-.2.4v5.9c0,.2,0,.3.2.4,0,0,.3.2.4.2h3.7c.2,0,.3,0,.4-.2,0,0,.2-.3.2-.4v-.3s0,0,0-.2c0,0,0,0-.2,0h-.3v-.2h0Z"/>
  <path class="st0" d="M135.6,13.2h-.3c-.2,0-.3,0-.4.2-.1,0-.2.3-.2.4v3.8h0l-2.9-4.2s-.1,0-.2-.2-.2,0-.3,0h-.4c-.2,0-.3,0-.4.2-.1,0-.2.3-.2.4v5.9c0,.2,0,.3.2.4.1,0,.3.2.4.2h.3c.2,0,.3,0,.4-.2.1,0,.2-.3.2-.4v-3.9h0l3,4.2s.1,0,.2.2h.7c.2,0,.3,0,.4-.2.1,0,.2-.3.2-.4v-5.9c0-.2-.1-.3-.2-.4-.1,0-.3-.2-.4-.2h-.1Z"/>
  <path class="st0" d="M37,11.9l1.9,2.3c.2.3.4.5.5.6.6.6.9,1.3.9,2.2s-.7,1.6-1.3,2.3l-1.3,1.6-.7.8h0v.2h7.2c1.1,0,2.4.9,2.3,2.3,0,.6-.3,1.2-.7,1.7s-1,.7-1.7.7h-11.1c-.7,0-2.7,0-3.2-1.6-.1-.3-.1-.7,0-1.1.2-.5.4-1,.8-1.5.5-.8,1.2-1.6,1.8-2.5.8-1,1.5-2,2.3-3.1h0v-.2l-2.8-3.3h-.2c-.8,1-4,5.4-4.8,6.3-.7.9-2.4,1-3.4,0l-4.4-4.3h-.1v8.5c0,.6-.2,1.2-.5,1.7s-.8.9-1.4,1c-.4,0-.8.2-1.1,0-.4,0-.8-.2-1-.4s-.6-.5-.8-.8-.3-.7-.3-1.1v-15c0-.5.2-1,.6-1.5s.8-.8,1.3-.9c.5,0,.9,0,1.4,0s.9.4,1.2.7l6.8,6.6h.2l4.8-6.6c.2-.3.5-.5.8-.6.3-.2.7-.2,1-.3h12.5c.3,0,.7,0,1,.2.3,0,.6.3.8.6.2.3.4.5.5.9,0,.3,0,.7,0,1,0,.6-.4,1.1-.8,1.5-.5.4-1,.6-1.6.6h-7.1v.2h0l-.2.2h-.1Z"/>
</svg>