<?xml version="1.0" encoding="UTF-8"?>
<svg id="Layer_1" xmlns="http://www.w3.org/2000/svg" version="1.1" viewBox="0 0 150 144.6">
  <!-- Generator: Adobe Illustrator 30.1.0, SVG Export Plug-In . SVG Version: 2.1.1 Build 136)  -->
  <defs>
    <style>
      .st0 {
        fill: #363636;
      }
    </style>
  </defs>
  <path class="st0" d="M130.2,114.5c-.6-6.3-6.6-9.7-9.8-14.6-5.7-7.7-9.5-17.3-12.2-26.4h0c-3.7-12.3-9.1-24.4-18.8-33.1-5.9,0-12-1-17.6-3.8-3.7-1.9-7-4.5-9.7-7.7-11-.3-21.8,4.4-29.3,12.4,0,0,0,0,0,0-.2.2-.4.4-.6.7,0,0,0,0,0,0-13.9,16-16.8,40.9-6,59.2,0,0,0,0,0,0,4.8,8.2,11.3,15.5,18.9,21.2h0s0,0,0,0h0c29.8,18.3,35.8,15,54,16.4,0,0,0,0,0,0,14.5.5,32.5-7.5,31.2-24.4Z"/>
  <path class="st0" d="M61.4,17.5c12.5,26,46,15.5,54.5,8.5-15.7-30.5-44.8-19.9-54.5-8.6h0c0,0,0,0,0,0Z"/>
</svg>