<?xml version="1.0" encoding="UTF-8"?>
<svg id="Layer_1" xmlns="http://www.w3.org/2000/svg" version="1.1" viewBox="0 0 150 63.1">
  <!-- Generator: Adobe Illustrator 30.1.0, SVG Export Plug-In . SVG Version: 2.1.1 Build 136)  -->
  <defs>
    <style>
      .st0 {
        fill: #363636;
      }
    </style>
  </defs>
  <path class="st0" d="M21.4,15.6c3.6-3.6,8.2-5.9,13.3-6.5,6.7-.3,13.5-.3,20.2,0,9.4,1,17.4,8.1,19.5,17.3,3.1,14-6.9,27.1-21.2,27.8-5.6-.2-11.3.3-16.9,0-19.5-1-28.9-24.7-15-38.6h0Z"/>
  <path class="st0" d="M102.1,31.6c0,0,.4,0,.5,0,13.9,1.9,12.7,21.6-.9,22.4h-26.6c-.2,0,0-.8,0-1.1.3-9.2,6.6-17.4,15.3-20.3,2.1-.7,4.2-1,6.4-1.1,0-.2-.5-.2-.7-.2-1.2,0-2.3-.2-3.5-.4-10-2.2-17.3-11.1-17.7-21.2s0-.7,0-.8c12.6,0,25.3,0,37.9,0,3.7,0,7.9,0,11.5,0s8.4,3,10,7.2c2.8,7.1-2.1,14.7-9.6,15.4-7.2.3-14.8-.4-22,0s-.5,0-.8,0h.2Z"/>
</svg>