<?xml version="1.0" encoding="UTF-8"?>
<svg id="Layer_1" xmlns="http://www.w3.org/2000/svg" version="1.1" viewBox="0 0 150 48.6">
  <!-- Generator: Adobe Illustrator 30.1.0, SVG Export Plug-In . SVG Version: 2.1.1 Build 136)  -->
  <defs>
    <style>
      .st0 {
        fill: #363636;
      }
    </style>
  </defs>
  <path class="st0" d="M40.1,8.9c-.3,0-.6,0-.9,0l-21.8,9.6c-.2,0-.4.2-.5.4l-3.9,5.6c-.4.6-.2,1.4.5,1.7l1.7.8c.3,0,.6,0,.9,0l22.3-9.8c.2,0,.4-.2.5-.4l3.7-5.3c.4-.6.2-1.4-.5-1.7l-2-.9h0Z"/>
  <path class="st0" d="M9.3,39.7c.3,0,.6,0,.9,0l21.8-9.6c.2,0,.4-.2.5-.4l3.9-5.6c.4-.6.2-1.4-.5-1.7l-1.7-.8c-.3,0-.6,0-.9,0l-22.3,9.8c-.2,0-.4.2-.5.4l-3.7,5.3c-.4.6-.2,1.4.5,1.7l2,.9h0Z"/>
  <g>
    <path class="st0" d="M140.8,16.4c0,0,0-.2-.2-.2h-2.7c-.1,0-.2,0-.2.2v2.6c0,0,0,.2-.2.2h-1.6c-.1,0-.2,0-.2.2v1.9c0,0,0,.2.2.2h1.6c.1,0,.2,0,.2.2v6c0,1.4.2,2.2.8,2.6s1.4.6,2.9.6h1.8c.1,0,.2,0,.2-.2v-2.1c0,0,0-.2-.2-.2h-1.4c-.2,0-.4,0-.5-.2-.3-.2-.4-.6-.4-1.2v-5.1c0,0,0-.2.2-.2h2.1c.1,0,.2,0,.2-.2v-1.9c0,0,0-.2-.2-.2h-2.1c-.1,0-.2,0-.2-.2v-2.5h0v-.3Z"/>
    <path class="st0" d="M133.6,20.3h0c-1.1-1-2.6-1.5-4.2-1.5s-3.1.5-4.2,1.5-1.9,2.5-1.9,4.7.7,3.7,1.9,4.7c1.1,1,2.6,1.5,4.2,1.5s3.1-.5,4.2-1.5,1.8-2.6,1.8-4.7-.7-3.7-1.8-4.7h0ZM131.4,27.9c-.5.6-1.3.9-2,.9s-1.5-.2-2-.9c-.5-.6-.8-1.6-.8-2.9s.3-2.3.8-2.9,1.2-.9,2-.9,1.5.2,2,.9c.5.6.8,1.5.8,2.9s-.3,2.3-.8,2.9Z"/>
    <path class="st0" d="M118.1,18.9h0c-1.8,0-3,1-3.6,1.9h0c0,0-.2,0-.2,0v-6.4c0,0,0-.2-.2-.2h-2.7c0,0-.2,0-.2.2v16.5c0,0,0,.2.2.2h2.7c0,0,.2,0,.2-.2v-5.9c0-1.1.2-2,.6-2.6s1-.9,1.9-.9.8,0,1.1.3.5.4.6.7c.3.6.3,1.4.3,2.3v6.2c0,0,0,.2.2.2h2.7c0,0,.2,0,.2-.2v-7c0-1.6-.2-2.8-.8-3.6-.6-.8-1.5-1.2-3-1.2h0v-.3Z"/>
    <path class="st0" d="M109.1,25.1h0c-.7-.5-1.7-.9-3.1-1.2l-2-.4c-.5,0-1-.2-1.2-.4s-.2-.2-.3-.3,0-.3,0-.4c0-.4.2-.7.6-.9.4-.2.9-.3,1.5-.3,1.1,0,2,.3,2.4,1.1,0,0,.2.2.3,0l2.2-.8c0,0,.2-.2,0-.3-.9-1.7-2.9-2.3-4.9-2.3s-2.7.3-3.6.9c-1,.6-1.6,1.5-1.6,2.7s.4,1.7,1,2.2c.6.6,1.6.9,2.7,1.1l1.9.3c.7,0,1.2.3,1.5.5.2,0,.3.2.4.4,0,0,0,.3,0,.5,0,.5-.3.8-.8,1.1s-1,.3-1.6.3-1.4-.2-1.9-.4c-.4-.2-.8-.5-1-.9,0,0-.2-.2-.3,0l-2.2.8c0,0-.2.2,0,.3.9,1.7,3,2.7,5.5,2.7s2.9-.3,3.9-1,1.6-1.6,1.6-2.9-.3-1.7-1-2.3h0Z"/>
    <path class="st0" d="M94.9,19.9c0,.2-.2.2-.4,0-.3-.2-.6-.4-.8-.5-.3-.2-.7-.4-1.1-.5s-.8-.2-1.3-.2c-1.1,0-2,.3-2.9.8-.8.5-1.5,1.3-2,2.2-.5.9-.7,2-.7,3.2s.2,2.2.7,3.2c.5.9,1.2,1.6,2,2.2.8.5,1.8.8,2.9.8s1.3,0,1.9-.4,1.1-.6,1.5-1h.2v.5c0,.8,0,1.4-.4,1.8-.2.5-.6.9-1.1,1.1s-1.1.4-1.9.4-.9,0-1.3,0c-.4,0-.8-.2-1.2-.4-.3,0-.6-.3-.8-.4h-.3l-.9,1.9v.3c.5.4,1.2.7,2.1,1s1.8.4,2.8.4,1.8,0,2.6-.4c.8-.3,1.4-.7,2-1.2.5-.5,1-1.2,1.2-1.9.3-.8.4-1.6.4-2.6v-10.9c0,0,0-.2-.2-.2h-2.6s-.2,0-.2.2l-.2.5h0ZM94.6,27h0c-.2.5-.6.9-1.1,1.2-.5.3-1,.4-1.6.4s-1.1-.2-1.6-.4c-.5-.3-.8-.7-1.1-1.2-.2-.5-.4-1.1-.4-1.8s0-1.3.4-1.8c.2-.5.6-.9,1.1-1.2.5-.3,1-.5,1.6-.5s1.2.2,1.6.4c.5.3.8.7,1.1,1.2.2.5.4,1.1.4,1.8s0,1.3-.4,1.8h0Z"/>
    <path class="st0" d="M80.6,18.9c-1.8,0-3,1-3.6,1.9h-.2l-.4-1.4s0-.2-.2-.2h-2.3c0,0-.2,0-.2.2v11.3c0,0,0,.2.2.2h2.7c0,0,.2,0,.2-.2v-5.9c0-1.1.2-2,.6-2.6s1-.9,1.9-.9.8,0,1.1.3.5.4.6.7c.3.6.3,1.4.3,2.3v6.2c0,0,0,.2.2.2h2.7c0,0,.2,0,.2-.2v-7c0-1.6-.2-2.8-.8-3.6-.6-.8-1.5-1.2-3-1.2h0Z"/>
    <path class="st0" d="M68.8,30.7c0,0,0,.2.2.2h2.7c0,0,.2,0,.2-.2v-11.3c0,0,0-.2-.2-.2h-4.6c0,0-.2,0-.2.2v1.9c0,0,0,.2.2.2h1.5c0,0,.2,0,.2.2v9h0Z"/>
    <path class="st0" d="M70.2,14c-1.1,0-1.9.9-1.9,1.9s.8,2,1.9,2,1.9-.9,1.9-2-.8-1.9-1.9-1.9Z"/>
    <path class="st0" d="M65.6,28.3h0c-.2,0-.4,0-.5-.2-.3-.2-.4-.6-.4-1.2v-12.6c0,0,0-.2-.2-.2h-2.7c0,0-.2,0-.2.2v13.5c0,1.4.2,2.2.8,2.6.5.5,1.4.6,2.9.6h1.8c0,0,.2,0,.2-.2v-2.1c0,0,0-.2-.2-.2h-1.4v-.2Z"/>
    <path class="st0" d="M58.3,22.4h0c-.9-.7-2.3-1.1-3.8-1.4l-2.1-.5c-.6,0-1.1-.4-1.5-.7-.4-.3-.5-.7-.5-1.2s.3-1.1.8-1.4,1.2-.5,2-.5c1.4,0,2.5.5,3.1,1.6,0,0,.2.2.3,0l2.5-1c0,0,.2-.2,0-.3-1.1-2.2-3.4-3.1-5.7-3.1s-3.4.5-4.6,1.3c-1.1.8-1.9,2.1-1.9,3.6s.4,2.2,1.2,2.9c.8.7,1.9,1.3,3.4,1.6l2,.4c1,.2,1.7.5,2.2.8.2.2.4.4.5.6s.2.5.2.8c0,.8-.4,1.3-1,1.7-.6.3-1.4.5-2.1.5-1.7,0-3.1-.8-3.7-2.1,0,0-.2-.2-.3,0l-2.5,1c0,0-.2.2,0,.3,1,2.4,3.3,3.7,6.5,3.7s3.3-.5,4.5-1.4,1.9-2.2,1.9-3.9-.6-2.5-1.5-3.2h0Z"/>
  </g>
</svg>