<?xml version="1.0" encoding="UTF-8"?>
<svg id="Layer_1" xmlns="http://www.w3.org/2000/svg" version="1.1" viewBox="0 0 150 77">
  <!-- Generator: Adobe Illustrator 30.1.0, SVG Export Plug-In . SVG Version: 2.1.1 Build 136)  -->
  <defs>
    <style>
      .st0 {
        fill: #363636;
      }
    </style>
  </defs>
  <path class="st0" d="M143.4,71.2c-1.1-3.7-2.8-7.1-4.8-10.3-4.4-7.2-9.8-13.6-16.5-18.8-2.7-2.1-5.6-3.9-8.9-4.8,0,0-.3,0-.5-.2.3,0,.5-.2.7-.3.8-.3,1.7-.5,2.5-.8.3,0,.6-.3.7-.5,3.6-5.8,7.2-11.7,10.8-17.5,0,2,.2,4.1.3,6.1,0,3.4.3,6.9.4,10.3,0,.7.1.8.8.5,2.2-.7,4.4-1.3,6.6-2,.6-.2.9-.5,1-1.1.8-3.3,1.5-6.5,2.3-9.8,1.1-4.6,2.2-9.1,3.2-13.7.1-.6,0-.7-.5-.5-4.5.9-9.1,1.9-13.6,2.8-.6,0-.9.3-.8.9v1.1c0,1.2,0,2.3,0,3.5-2.8.6-5.6,1.2-8.4,1.7-.8.2-1.2.5-1.5,1.2-2,4.5-4,8.9-6.1,13.4-.2.5-.5,1.1-.9,1.7v-.3c0-4,.2-7.9.3-11.9,0-2.6.2-5.1.2-7.7s0-.8-.8-.6c-2.6.8-5.3,1.5-7.9,2.3-.5.2-.8.4-.8,1-.2,2.3-.4,4.6-.6,6.9-.5,6-1.1,12-1.7,18-.2,2.7-.5,5.3-.7,8-.2-2.5-.4-4.9-.6-7.4-.3-3.5-.5-7-.8-10.5-.3-4-.6-8.1-.9-12.1-.2-2.2-.4-4.5-.5-6.7,0-.6-.3-.9-.8-1-2.2-.6-4.4-1.3-6.6-2-.6-.2-.7,0-.7.5v4c0,6.2,0,12.3,0,18.5v.6c-.2-.2-.2-.3-.3-.5-1.2-5.7-2.3-11.3-3.5-17-.2-1-.3-1-1.2-.8-2.6.7-5.3,1.3-7.9,2-.6,0-.7.4-.8.9,0,2.9,0,5.7-.2,8.6,0,3.3,0,6.6-.2,9.8-1.3-5.6-2.6-11.1-4-16.7-.2-.7-.3-.8-.9-.4l-3.6,1.8c-.5.2-.7.6-.7,1.1v5.2h0v4c0,.6-.2,1-.8,1.2-1.3.5-2.5.5-3.8,0-.8-.3-.9-.5-.8-1.4.6-3.9,1.2-7.7,1.8-11.6.6-4,1.3-8,1.9-12.1,0-.7,0-.8-.7-.6-1.6.5-3.2,1.1-4.8,1.5s-1.2.6-1.3,1.5v.2c-1.3,5.6-2.6,11.2-3.9,16.9,0-.7-.3-1.4-.4-2.1-.9-4.7-1.7-9.4-2.6-14.1,0-.7-.2-.8-.8-.4-1.9,1-3.8,1.9-5.8,2.9s-.6.5-.6,1c0,1.5.3,3,.4,4.5.3,3.5.6,6.9.9,10.4,0,.4,0,.6-.4.7-.8.3-1.6.7-2.4,1-.5.2-.7,0-.7-.4,0-.9-.2-1.9-.3-2.8-.3-2.8-.5-5.6-.8-8.4,0-.7-.2-.7-.8-.5-.9.3-1.9.7-2.8,1v-3.9c0-.6-.2-.8-.7-1-9.1-3.3-18.1-6.7-27.2-10-.3,0-.5,0-.9-.2v.7c.9,4.5,1.9,9,2.8,13.6.1.6.5.7,1,.8,3.1.4,6.1.8,9.2,1.3.9,0,1.1.3.8,1.2-.5,2.1-1.1,4.2-1.7,6.3-2.4,8.9-4.7,17.8-7.1,26.7,0,.2,0,.4-.1.7,1-.3,1.9-.5,2.8-.8,4.8-1.3,9.6-2.7,14.4-4,.5,0,.7-.4.7-.9-.1-2.8-.2-5.6-.3-8.4,0-2.4-.2-4.8-.3-7.2-.1-3.7-.3-7.4-.4-11.1,0-1.1.2-1.3,1.4-1.2.9,0,1.7.2,2.6.4v11.2c0,.6-.1,1-.7,1.2-.5.2-.7.6-.7,1.1,0,1.8,0,3.5-.1,5.3q0,.8.7.5t.8.6v11.7c0,.8,0,.9.9.8,2.8-.4,5.7-.9,8.5-1.3.5,0,.6-.3.6-.7-.2-2-.4-4.1-.6-6.1-.3-2.8-.5-5.5-.8-8.3,0-.5,0-.7.6-.9.6-.2,1.2-.5,1.8-.7q1.1-.4,1.2.7c.3,3.6.7,7.2,1,10.9,0,.7.3,1,1,1.2,3.2.8,6.3,1.7,9.4,2.5.3,0,.6.2,1.1.3,0-.5,0-.7,0-1-.4-2.1-.8-4.3-1.2-6.4,3.6,1.2,7.3,1.6,11.2,1.3,2.4-.2,4.7-.9,6.9-2,0,2.6,0,5.3-.2,7.9,0,.5.2.7.6.7,2.3,0,4.5,0,6.8-.2.5,0,.7-.3.7-.8v-16.4h.2c0,.2.3.5.4.8,1.8,4.9,3.5,9.7,5.3,14.6,0,.3.4.6.7.6,3.3.9,6.6,1.9,9.9,2.8,0,.5,0,1,0,1.5,0,.4,0,.6.6.6,3.6-.6,7.2-1.2,10.8-1.8.5,0,.7-.3.7-.8,0-1.4,0-2.8,0-4.3,0-2.8.2-5.5.2-8.3s.2-.8.8-.5c.6.3,1.1.6,1.6,1,2.3,1.8,4.1,4.1,5.6,6.6,3.2,5.1,5.5,10.5,6.8,16.4,0,.5.4.8.9,1,5.6,1.8,11.3,3.7,16.9,5.6.2,0,.4,0,.7,0,0-.3-.1-.5-.2-.7l.3-.2Z"/>
  <path class="st0" d="M129.7,38.7c-.6,1.1-1,2.3-1.1,3.6-.2,3,.5,5.6,2.7,7.8,2.3,2.2,5.5,2,7.5-.5,1.2-1.6,1.7-3.4,1.7-4.7,0-3.1-.7-5.2-2.2-7.1-2.6-3-6.6-2.6-8.5.9h0Z"/>
</svg>