<?xml version="1.0" encoding="UTF-8"?>
<svg id="Layer_1" xmlns="http://www.w3.org/2000/svg" version="1.1" viewBox="0 0 150 87.1">
  <!-- Generator: Adobe Illustrator 30.1.0, SVG Export Plug-In . SVG Version: 2.1.1 Build 136)  -->
  <defs>
    <style>
      .st0, .st1 {
        fill: #363636;
      }

      .st1 {
        fill-rule: evenodd;
      }
    </style>
  </defs>
  <path class="st0" d="M11.4,20.7c.3,0,.6.3.6.6s-.3.6-.6.6-.6-.3-.6-.6.3-.6.6-.6Z"/>
  <path class="st1" d="M61.6,10.9c0,0,.2,0,.2.2,0,3.8-.6,7.8-3.8,10.9-3.2,3.1-9.3,5.5-20.7,5.6-.7,0-1.3.6-1.3,1.3,0,1.7,0,3-.2,3.9-.2.9-.5,1.4-1.1,1.7-.6.4-1.6.6-3.1.7-1.2,0-2.8,0-4.7,0s-.3,0-.3.3v.4c0,.2.1.3.3.3,1.9,0,3.5,0,4.8,0,1,0,1.8-.2,2.5-.4,0,0,.3,0,.4.2l2.4,4.6c0,.2,0,.4-.3.5-.5,0-1,0-1.4.2h-.2c-.2,0-.3.2-.3.4v.4c0,.2.3.3.4.3h.2c.6,0,1.5-.2,2.5-.2,2.4,0,5.4.5,7.2,2.3h.8c.6-.3,2.1-.8,3.6-.8s2,.6,2.9,1.7c.9,1.2,1.6,2.9,1.6,5.1v14.6h0c0,.6.4,1.2.8,1.9.3.4.6.9,1,1.3s0,.3,0,.5l-.2.2s-.2,0-.3,0c-1.1-.3-2.6-.9-3.8-1.8-1.4-1.1-2.5-2.7-2.5-5v-13h0c0-.7-.4-2.1-1.5-3,0,0-.2-.2-.4-.3,0,0-.3,0-.4,0l-.2.4c0,0,0,.3,0,.4h0c.3.4.8,1.6.3,4.3-.3,1.6-1.4,2.9-2.8,3.8-1.3.9-2.9,1.4-3.9,1.6h0l-.2.2h0c0,0-1.7,3.6-1.7,3.6v.6s0,0,.2.2l3,3v1.3l-7.9,7.9c0,0-.3,0-.4,0,0,0-.3,0-.4,0l-.3.3c0,0,0,.3,0,.4l1.1,1.1c0,0,0,.3,0,.4l-.3.3h-4.6c-.2,0-.3,0-.3-.3v-.6l9.4-9.4v-.8l-6.7-6.7c-.2-.2-.5-.6-.7-1-.3-.5-.4-.9-.4-1.2,0-.7.3-1.7.5-2.2h0c0,0,4.1-4.4,4.1-4.4,0,0,0-.3,0-.4l-.3-.3c0,0-.3,0-.4,0l-2.4,2.5s-.2,0-.4,0l-7-3.4c-.3,0-.2-.5.1-.5h.2l.3-.2h.1c0,0,2-5.6,2-5.6,0-.2,0-.3-.2-.4h-.3c-.2-.2-.3,0-.4,0l-1.9,5.1c0,0-.2.2-.3.2h-5.1c-.1,0-.2,0-.3-.2l-2.1-5.2c0,0-.2-.2-.3-.2h-.5c-.1,0-.2,0-.3.2l-3.3,7.7v.6s.1,0,.2.2l.8.7h.2q0,0,.1,0h1c.2,0,.4.3.3.5l-1.2,1.9c-.1.2-.4.2-.5,0l-2.8-2.9s-.1-.2,0-.3l4.2-11.6c0,0,.2-.2.3-.2h3c.1,0,.2,0,.3.2l2.8,6.6c0,.2.3.2.4.2h.3c.2-.2.2-.4.2-.6l-2.9-7s0,0-.1,0l-.3-.2h-1.8c-.2,0-.4-.2-.3-.4.3-.7.6-1.6.9-2.5.4-1.3.7-2.9.7-4.1s-.5-2.7-1.1-3.8-1.2-2-1.7-2.6c0,0-.2,0-.3,0h-.5c-.1,0-.2,0-.2.2l-1.1,2.5c0,0-.2,0-.3,0h-.3l-.4.3c-.1,0-.1.3,0,.4l1.2,1.3c.1,0,.1.3,0,.4l-1.8,1.8c-.1,0-.3,0-.4,0l-1.7-1.7v-12.7c0-.2.1-.3.3-.3h.3c1.5,0,3.6,0,5.8.3,2.2.4,4.3,1.2,6,2.5,3.2,2.6,4.9,6.4,5.6,8.8,0,.2-.1.4-.3.4h-1.3c-1,0-1.9,0-2.5.2h-.2c-.2,0-.3.2-.3.4v.4c0,.2.2.3.4.3h.2c.6,0,1.5-.2,2.4-.2s1.8,0,2.2.2c.6.2,1.4.7,2,1.2.1,0,.2.2.1.3,0,.2-.1.5-.2.7-.3,1-.8,1.6-1.4,1.9-.4.2-.9.4-1.4.4s-.3.2-.3.3v.4c0,.2.2.3.3.3.7,0,1.3-.3,1.9-.6.9-.5,1.5-1.3,1.9-2.5s.6-2.7.7-4.6c.1-2,.1-4.4.1-7.4,0-4.5,3.6-8.1,8.1-8.1h22.3ZM10.8,27.3h-.4c-.1,0-.3.3-.4.4v.4c.1.2.3.4.3.5,0,.2.3.4.5.5.3,0,.6,0,.8-.2.1,0,.3-.4.2-.7,0-.3-.3-.4-.4-.5-.2,0-.4-.3-.6-.4h-.1,0ZM11.4,19.6c-.9,0-1.7.7-1.7,1.7s.7,1.7,1.7,1.7,1.7-.7,1.7-1.7-.7-1.7-1.7-1.7Z"/>
  <path class="st0" d="M28.6,51.3s.2,0,.4,0l1.5.7c.2,0,.2.3,0,.5l-.7.7h0v.2c-.2.5-.6,1.7-.6,2.7s.3,1.2.5,1.7c.3.5.6,1,.8,1.2h0l1,1c.1,0,.1.3,0,.4l-.9.9v.8l.8.9v2.3l-7.7,7.7c-.1,0-.3,0-.4,0l-.4-.4c-.1,0-.3,0-.4,0l-.3.3c-.1,0-.1.3,0,.4l1.2,1.2c.1,0,.1.3,0,.4l-.3.3h-4.3c-.2,0-.3,0-.3-.3s0-.2,0-.2l9.9-9.9v-.8l-3.5-3.5h0c-.3-.3-1-1.2-1-2.6s.5-2.4.8-2.8h0l3.9-3.9h0Z"/>
  <path class="st0" d="M13.2,33.3c.1,0,.2,0,.3.2l1.3,2.7c0,.2,0,.4-.3.4h-.3l-.3.2h-.1c0,0-.6,1.9-.6,1.9,0,.3-.5.3-.6,0l-.9-2c0,0-.2-.2-.3-.2h-.5c-.1,0-.2,0-.3.2l-2.8,7.3v.3l.3.4s.2,0,.3,0h.8c.3,0,.4.3.3.5l-1,1.4c-.1.2-.4.2-.5,0l-2.2-2.4s0-.2,0-.3l3.8-10.7c0,0,.2-.2.3-.2h3.5l-.2.2Z"/>
  <path class="st0" d="M13.7,12.3c.9,0,3.1,0,5.5.9,2.4.8,5.1,2.3,6.9,4.9,2.4,3.3,3.7,5.9,4.3,7.4h0v.9c0,.7,0,1.3-.2,1.9,0,.2-.3.3-.5.2-.4-.3-.8-.5-1.2-.7,0,0-.2,0-.2-.2-.5-2.4-2.3-7.1-6.2-10.2-1.9-1.5-4.2-2.3-6.4-2.7-1.9-.3-3.7-.4-5.2-.4s-.3,0-.3-.3v-1.2c0-.2.1-.3.3-.3.8,0,2-.3,3.1-.3h.1Z"/>
  <path class="st0" d="M79.7,73.7h0c4.6,0,8.2-.2,10.8-.7,6.3-1.3,8.5-4.8,10.2-11.1,1-4.5,1.3-5.4,2.3-5.4s1.5.3,1.5,4.4,0,9.2-.2,13.1c-.2,3.1-.7,3.4-1.8,3.4-2.6,0-6.5-.4-20.1-.4s-11.6.3-13.4.3c-2.8-.2-3.8-2.7-2.2-5.5l24.1-49.8c1.8-4.1,3.3-6.1-2.3-6.1s-5,0-7.2.6c-4,1-6.5,3.5-8.1,7-1.5,3.4-1.6,8-4.2,8s-1.3-1.2-1.3-2.9,0-2.5.3-3.9c.4-4.1.7-9.3,1.2-12.6.4-2.5,1-3,1.7-3,1.2,0,1.5.9,2,1.8.5,1,1.4,1.9,4.2,1.9,4.4,0,8.8,0,13.4,0s5.4,0,9.6,0,2.4,5.1,2.1,5.8c-7.9,16.5-15.7,33-23.5,49.6-1.4,3.1-3.7,5.5.8,5.5Z"/>
  <path class="st0" d="M125.7,78.2h0c-11.1,0-18.6-11.1-18.6-24.4s7.5-24.4,18.7-24.4,18.8,11.1,18.8,24.4-7.5,24.4-18.8,24.4ZM125.9,75.3h0c6.4,0,7.8-10.6,7.8-20.6s-1.7-22.6-8.3-22.6-7.1,11.6-7.1,21.6,1,21.6,7.5,21.6Z"/>
</svg>